<svg width="1380" height="1553" viewBox="0 0 1380 1553" fill="none" xmlns="http://www.w3.org/2000/svg">
<path d="M48.15 426V72.9H117.486V218.634H249.524V72.9H318.646V426H249.524V279.41H117.486V426H48.15ZM415.127 426V72.9H611.579V133.676H484.463V218.634H606.443V279.41H484.463V365.224H611.579V426H415.127ZM4.066 905L145.948 551.9H210.362L352.03 905H277.344L247.384 824.536H108.712L78.752 905H4.066ZM132.466 763.76H223.844L178.048 645.418L132.466 763.76ZM404.259 905V551.9H473.595V844.224H601.139V905H404.259ZM97.798 1384V1092.1H8.346V1030.9H256.586V1092.1H166.92V1384H97.798Z" fill="#F8F9FA"/>
<path opacity="0.7" d="M300.15 1388V1034.9H369.486V1180.63H501.524V1034.9H570.646V1388H501.524V1241.41H369.486V1388H300.15ZM795.527 1394.85C751.3 1394.85 717.845 1383.79 695.161 1361.68C672.477 1339.42 661.135 1306.47 661.135 1262.81V1034.9H730.471V1242.91C730.471 1272.73 735.535 1294.2 745.665 1307.32C755.937 1320.3 772.557 1326.8 795.527 1326.8C818.496 1326.8 835.045 1320.3 845.175 1307.32C855.447 1294.2 860.583 1272.73 860.583 1242.91V1034.9H929.919V1262.81C929.919 1306.47 918.577 1339.42 895.893 1361.68C873.351 1383.79 839.896 1394.85 795.527 1394.85ZM1001.91 1388V1034.9H1103.13C1137.08 1034.9 1163.69 1042.32 1182.95 1057.16C1202.21 1071.99 1211.84 1094.18 1211.84 1123.71C1211.84 1160.38 1196.72 1186.27 1166.47 1201.39C1191.15 1205.24 1210.06 1214.73 1223.18 1229.85C1236.45 1244.83 1243.08 1264.52 1243.08 1288.92C1243.08 1309.46 1238.45 1327.15 1229.17 1341.99C1219.9 1356.83 1206.7 1368.24 1189.58 1376.23C1172.46 1384.08 1152.21 1388 1128.81 1388H1001.91ZM1071.03 1177.85H1087.08C1105.77 1177.85 1120.11 1174 1130.09 1166.3C1140.08 1158.45 1145.07 1147.25 1145.07 1132.7C1145.07 1118 1140.22 1107.02 1130.52 1099.74C1120.82 1092.32 1106.34 1088.61 1087.08 1088.61H1071.03V1177.85ZM1071.03 1334.07H1105.27C1126.95 1334.07 1143.22 1330.08 1154.06 1322.09C1165.05 1314.1 1170.54 1302.33 1170.54 1286.78C1170.54 1270.94 1164.9 1258.82 1153.63 1250.4C1142.5 1241.84 1126.38 1237.56 1105.27 1237.56H1071.03V1334.07Z" fill="#F8F9FA"/>
<line x1="133.531" y1="1463.25" x2="530.411" y2="1463.25" stroke="white" stroke-width="40"/>
</svg>
