<svg width="392" height="67" viewBox="0 0 392 67" fill="none" xmlns="http://www.w3.org/2000/svg">
<path d="M7.2 53V0.199997H17.568V21.992H37.312V0.199997H47.648V53H37.312V31.08H17.568V53H7.2ZM62.075 53V0.199997H91.451V9.288H72.443V21.992H90.683V31.08H72.443V43.912H91.451V53H62.075ZM97.9205 53L119.137 0.199997H128.769L149.953 53H138.785L134.305 40.968H113.569L109.089 53H97.9205ZM117.121 31.88H130.785L123.937 14.184L117.121 31.88ZM157.763 53V0.199997H168.131V43.912H187.203V53H157.763ZM199.749 53V9.352H186.373V0.199997H223.493V9.352H210.085V53H199.749Z" fill="#F8F9FA"/>
<path opacity="0.7" d="M230.2 53V0.199997H240.568V21.992H260.312V0.199997H270.648V53H260.312V31.08H240.568V53H230.2ZM304.275 54.024C297.662 54.024 292.659 52.3707 289.267 49.064C285.875 45.736 284.179 40.808 284.179 34.28V0.199997H294.547V31.304C294.547 35.7627 295.304 38.9733 296.819 40.936C298.355 42.8773 300.84 43.848 304.275 43.848C307.71 43.848 310.184 42.8773 311.699 40.936C313.235 38.9733 314.003 35.7627 314.003 31.304V0.199997H324.371V34.28C324.371 40.808 322.675 45.736 319.283 49.064C315.912 52.3707 310.91 54.024 304.275 54.024ZM335.136 53V0.199997H350.272C355.349 0.199997 359.328 1.30933 362.208 3.528C365.088 5.74666 366.528 9.064 366.528 13.48C366.528 18.9627 364.266 22.8347 359.744 25.096C363.434 25.672 366.261 27.0907 368.224 29.352C370.208 31.592 371.2 34.536 371.2 38.184C371.2 41.256 370.506 43.9013 369.12 46.12C367.733 48.3387 365.76 50.0453 363.2 51.24C360.64 52.4133 357.61 53 354.112 53H335.136ZM345.472 21.576H347.872C350.666 21.576 352.81 21 354.304 19.848C355.797 18.6747 356.544 17 356.544 14.824C356.544 12.6267 355.818 10.984 354.368 9.896C352.917 8.78666 350.752 8.232 347.872 8.232H345.472V21.576ZM345.472 44.936H350.592C353.834 44.936 356.266 44.3387 357.888 43.144C359.53 41.9493 360.352 40.1893 360.352 37.864C360.352 35.496 359.509 33.6827 357.824 32.424C356.16 31.144 353.749 30.504 350.592 30.504H345.472V44.936Z" fill="#F8F9FA"/>
<line x1="271" y1="64.5" x2="335" y2="64.5" stroke="white" stroke-width="5"/>
</svg>
