<svg width="386" height="69" viewBox="0 0 386 69" fill="none" xmlns="http://www.w3.org/2000/svg">
<path d="M273.246 15.44C267.828 25.072 265.936 28.426 264.044 31.866C265.85 32.812 266.796 34.274 267.14 35.65C267.398 36.768 266.796 37.456 265.162 37.198C263.872 37.026 262.668 36.94 261.206 36.94C258.454 42.358 255.616 48.206 252.778 54.484C252.176 55.86 250.714 56.29 249.768 54.742C248.994 53.538 248.306 52.248 248.306 50.356C248.306 49.066 248.65 47.346 249.424 45.024C250.026 43.39 251.144 40.552 252.52 37.714C247.188 38.402 241.684 39.434 237.814 39.434C235.32 44.594 232.826 50.098 230.332 55.602C229.73 57.064 228.182 57.494 227.15 56.032C226.376 55 225.688 53.538 225.688 51.56C225.688 49.066 226.548 46.486 230.16 37.972C228.44 37.026 227.752 35.994 227.408 35.392C226.548 33.758 227.064 33.156 229.386 33.328C230.676 33.414 231.192 33.586 232.138 33.586C237.47 22.492 245.296 8.216 248.908 3.056C250.284 1.25 251.574 1.508 252.52 3.142C253.036 4.088 253.294 5.206 253.294 6.668C253.294 9.076 252.52 12.43 250.456 16.214L241.254 32.984C246.672 32.21 251.058 31.092 255.788 30.662C261.292 19.74 268.688 6.582 272.128 2.024C273.676 0.045995 274.966 0.303997 275.826 2.196C276.256 3.142 276.6 4.174 276.6 5.464C276.6 7.872 275.74 11.14 273.246 15.44Z" fill="#F8F9FA" fill-opacity="0.7"/>
<path opacity="0.7" d="M303.4 57.024C296.787 57.024 291.784 55.3707 288.392 52.064C285 48.736 283.304 43.808 283.304 37.28V3.2H293.672V34.304C293.672 38.7627 294.429 41.9733 295.944 43.936C297.48 45.8773 299.965 46.848 303.4 46.848C306.835 46.848 309.309 45.8773 310.824 43.936C312.36 41.9733 313.128 38.7627 313.128 34.304V3.2H323.496V37.28C323.496 43.808 321.8 48.736 318.408 52.064C315.037 55.3707 310.035 57.024 303.4 57.024ZM334.261 56V3.2H349.397C354.474 3.2 358.453 4.30933 361.333 6.528C364.213 8.74666 365.653 12.064 365.653 16.48C365.653 21.9627 363.391 25.8347 358.869 28.096C362.559 28.672 365.386 30.0907 367.349 32.352C369.333 34.592 370.325 37.536 370.325 41.184C370.325 44.256 369.631 46.9013 368.245 49.12C366.858 51.3387 364.885 53.0453 362.325 54.24C359.765 55.4133 356.735 56 353.237 56H334.261ZM344.597 24.576H346.997C349.791 24.576 351.935 24 353.429 22.848C354.922 21.6747 355.669 20 355.669 17.824C355.669 15.6267 354.943 13.984 353.493 12.896C352.042 11.7867 349.877 11.232 346.997 11.232H344.597V24.576ZM344.597 47.936H349.717C352.959 47.936 355.391 47.3387 357.013 46.144C358.655 44.9493 359.477 43.1893 359.477 40.864C359.477 38.496 358.634 36.6827 356.949 35.424C355.285 34.144 352.874 33.504 349.717 33.504H344.597V47.936Z" fill="#F8F9FA"/>
<path d="M7.2 54V1.2H17.568V22.992H37.312V1.2H47.648V54H37.312V32.08H17.568V54H7.2ZM62.075 54V1.2H91.451V10.288H72.443V22.992H90.683V32.08H72.443V44.912H91.451V54H62.075ZM97.9205 54L119.137 1.2H128.769L149.953 54H138.785L134.305 41.968H113.569L109.089 54H97.9205ZM117.121 32.88H130.785L123.937 15.184L117.121 32.88ZM157.763 54V1.2H168.131V44.912H187.203V54H157.763ZM199.749 54V10.352H186.373V1.2H223.493V10.352H210.085V54H199.749Z" fill="#F8F9FA"/>
<line x1="212" y1="66.5" x2="269" y2="66.5" stroke="#F8F9FA" stroke-width="5"/>
</svg>
