<svg width="285" height="231" viewBox="0 0 285 231" fill="none" xmlns="http://www.w3.org/2000/svg">
<path d="M4.05 123V93.3H9.882V105.558H20.988V93.3H26.802V123H20.988V110.67H9.882V123H4.05ZM34.9172 123V93.3H51.4412V98.412H40.7492V105.558H51.0092V110.67H40.7492V117.888H51.4412V123H34.9172ZM55.0803 123L67.0143 93.3H72.4323L84.3483 123H78.0663L75.5463 116.232H63.8823L61.3623 123H55.0803ZM65.8803 111.12H73.5663L69.7143 101.166L65.8803 111.12ZM88.7414 123V93.3H94.5734V117.888H105.301V123H88.7414ZM112.359 123V98.448H104.835V93.3H125.715V98.448H118.173V123H112.359Z" fill="#F8F9FA"/>
<path opacity="0.7" d="M132.05 123V93.3H137.882V105.558H148.988V93.3H154.802V123H148.988V110.67H137.882V123H132.05ZM173.717 123.576C169.997 123.576 167.183 122.646 165.275 120.786C163.367 118.914 162.413 116.142 162.413 112.47V93.3H168.245V110.796C168.245 113.304 168.671 115.11 169.523 116.214C170.387 117.306 171.785 117.852 173.717 117.852C175.649 117.852 177.041 117.306 177.893 116.214C178.757 115.11 179.189 113.304 179.189 110.796V93.3H185.021V112.47C185.021 116.142 184.067 118.914 182.159 120.786C180.263 122.646 177.449 123.576 173.717 123.576ZM191.076 123V93.3H199.59C202.446 93.3 204.684 93.924 206.304 95.172C207.924 96.42 208.734 98.286 208.734 100.77C208.734 103.854 207.462 106.032 204.918 107.304C206.994 107.628 208.584 108.426 209.688 109.698C210.804 110.958 211.362 112.614 211.362 114.666C211.362 116.394 210.972 117.882 210.192 119.13C209.412 120.378 208.302 121.338 206.862 122.01C205.422 122.67 203.718 123 201.75 123H191.076ZM196.89 105.324H198.24C199.812 105.324 201.018 105 201.858 104.352C202.698 103.692 203.118 102.75 203.118 101.526C203.118 100.29 202.71 99.366 201.894 98.754C201.078 98.13 199.86 97.818 198.24 97.818H196.89V105.324ZM196.89 118.464H199.77C201.594 118.464 202.962 118.128 203.874 117.456C204.798 116.784 205.26 115.794 205.26 114.486C205.26 113.154 204.786 112.134 203.838 111.426C202.902 110.706 201.546 110.346 199.77 110.346H196.89V118.464Z" fill="#F8F9FA"/>
<line x1="152" y1="130" x2="195" y2="130" stroke="white" stroke-width="4"/>
</svg>
