<svg width="1904" height="1785" viewBox="0 0 1904 1785" fill="none" xmlns="http://www.w3.org/2000/svg">
<path d="M48.6617 422V68.9H117.998V214.634H250.036V68.9H319.158V422H250.036V275.41H117.998V422H48.6617ZM415.638 422V68.9H612.09V129.676H484.974V214.634H606.954V275.41H484.974V361.224H612.09V422H415.638ZM4.57772 901L146.46 547.9H210.874L352.542 901H277.856L247.896 820.536H109.224L79.2637 901H4.57772ZM132.978 759.76H224.356L178.56 641.418L132.978 759.76ZM404.771 901V547.9H474.107V840.224H601.651V901H404.771ZM98.3097 1380V1088.1H8.85772V1026.9H257.098V1088.1H167.432V1380H98.3097Z" fill="#F8F9FA"/>
<path opacity="0.7" d="M298.15 1380V1026.9H367.486V1172.63H499.524V1026.9H568.646V1380H499.524V1233.41H367.486V1380H298.15ZM793.527 1386.85C749.3 1386.85 715.845 1375.79 693.161 1353.68C670.477 1331.42 659.135 1298.47 659.135 1254.81V1026.9H728.471V1234.91C728.471 1264.73 733.535 1286.2 743.665 1299.32C753.937 1312.3 770.557 1318.8 793.527 1318.8C816.496 1318.8 833.045 1312.3 843.175 1299.32C853.447 1286.2 858.583 1264.73 858.583 1234.91V1026.9H927.919V1254.81C927.919 1298.47 916.577 1331.42 893.893 1353.68C871.351 1375.79 837.896 1386.85 793.527 1386.85ZM999.906 1380V1026.9H1101.13C1135.08 1026.9 1161.69 1034.32 1180.95 1049.16C1200.21 1063.99 1209.84 1086.18 1209.84 1115.71C1209.84 1152.38 1194.72 1178.27 1164.47 1193.39C1189.15 1197.24 1208.06 1206.73 1221.18 1221.85C1234.45 1236.83 1241.08 1256.52 1241.08 1280.92C1241.08 1301.46 1236.45 1319.15 1227.17 1333.99C1217.9 1348.83 1204.7 1360.24 1187.58 1368.23C1170.46 1376.08 1150.21 1380 1126.81 1380H999.906ZM1069.03 1169.85H1085.08C1103.77 1169.85 1118.11 1166 1128.09 1158.3C1138.08 1150.45 1143.07 1139.25 1143.07 1124.7C1143.07 1110 1138.22 1099.02 1128.52 1091.74C1118.82 1084.32 1104.34 1080.61 1085.08 1080.61H1069.03V1169.85ZM1069.03 1326.07H1103.27C1124.95 1326.07 1141.22 1322.08 1152.06 1314.09C1163.05 1306.1 1168.54 1294.33 1168.54 1278.78C1168.54 1262.94 1162.9 1250.82 1151.63 1242.4C1140.5 1233.84 1124.38 1229.56 1103.27 1229.56H1069.03V1326.07Z" fill="#F8F9FA"/>
<line x1="586" y1="1449" x2="978.345" y2="1449" stroke="white" stroke-width="40"/>
</svg>
