<svg width="621" height="434" viewBox="0 0 621 434" fill="none" xmlns="http://www.w3.org/2000/svg">
<path d="M14.4 106.37V0.769623H35.136V44.3536H74.624V0.769623H95.296V106.37H74.624V62.5296H35.136V106.37H14.4ZM124.15 106.37V0.769623H182.902V18.9456H144.886V44.3536H181.366V62.5296H144.886V88.1936H182.902V106.37H124.15ZM1.216 249.37L43.648 143.77H62.912L105.28 249.37H82.944L73.984 225.306H32.512L23.552 249.37H1.216ZM39.616 207.13H66.944L53.248 171.738L39.616 207.13ZM120.9 249.37V143.77H141.636V231.194H179.78V249.37H120.9ZM29.248 392.37V305.074H2.496V286.77H76.736V305.074H49.92V392.37H29.248Z" fill="#F8F9FA"/>
<path opacity="0.7" d="M98.4 392V286.4H119.136V329.984H158.624V286.4H179.296V392H158.624V348.16H119.136V392H98.4ZM246.55 394.048C233.323 394.048 223.318 390.741 216.534 384.128C209.75 377.472 206.358 367.616 206.358 354.56V286.4H227.094V348.608C227.094 357.525 228.609 363.947 231.638 367.872C234.71 371.755 239.681 373.696 246.55 373.696C253.419 373.696 258.369 371.755 261.398 367.872C264.47 363.947 266.006 357.525 266.006 348.608V286.4H286.742V354.56C286.742 367.616 283.35 377.472 276.566 384.128C269.825 390.741 259.819 394.048 246.55 394.048ZM308.271 392V286.4H338.543C348.698 286.4 356.655 288.619 362.415 293.056C368.175 297.493 371.055 304.128 371.055 312.96C371.055 323.925 366.532 331.669 357.487 336.192C364.868 337.344 370.522 340.181 374.447 344.704C378.415 349.184 380.399 355.072 380.399 362.368C380.399 368.512 379.012 373.803 376.239 378.24C373.466 382.677 369.519 386.091 364.399 388.48C359.279 390.827 353.22 392 346.223 392H308.271ZM328.943 329.152H333.743C339.332 329.152 343.62 328 346.607 325.696C349.594 323.349 351.087 320 351.087 315.648C351.087 311.253 349.636 307.968 346.735 305.792C343.834 303.573 339.503 302.464 333.743 302.464H328.943V329.152ZM328.943 375.872H339.183C345.668 375.872 350.532 374.677 353.775 372.288C357.06 369.899 358.703 366.379 358.703 361.728C358.703 356.992 357.018 353.365 353.647 350.848C350.319 348.288 345.498 347.008 339.183 347.008H328.943V375.872Z" fill="#F8F9FA"/>
<line x1="183" y1="417" x2="311" y2="417" stroke="white" stroke-width="10"/>
</svg>
