<svg width="328" height="156" viewBox="0 0 328 156" fill="none" xmlns="http://www.w3.org/2000/svg">
<g filter="url(#filter0_d_39_44)">
<path d="M51.5285 41L55.4645 1.4H63.7205L73.1765 26.168L82.6325 1.4H90.8885L94.8245 41H87.0485L84.6005 15.368L75.5525 40.016H70.7765L61.7525 15.368L59.2805 41H51.5285ZM103.79 41V1.4H125.822V8.216H111.566V17.744H125.246V24.56H111.566V34.184H125.822V41H103.79ZM135.337 41V1.4H143.113L160.177 28.04V1.4H167.953V41H160.177L143.113 14.36V41H135.337ZM182.014 41V8.264H171.982V1.4H199.822V8.264H189.766V41H182.014ZM198.877 41L214.789 1.4H222.013L237.901 41H229.525L226.165 31.976H210.613L207.253 41H198.877ZM213.277 25.16H223.525L218.389 11.888L213.277 25.16ZM243.759 41V1.4H251.535V34.184H265.839V41H243.759ZM295.206 41.768C292.646 41.768 290.39 41.32 288.438 40.424C286.502 39.528 284.99 38.272 283.902 36.656C282.814 35.04 282.27 33.152 282.27 30.992C282.27 28.464 283.062 26.264 284.646 24.392C286.246 22.504 288.654 20.888 291.87 19.544C290.814 18.28 289.966 17.152 289.326 16.16C288.702 15.152 288.254 14.192 287.982 13.28C287.71 12.368 287.574 11.432 287.574 10.472C287.574 8.392 288.094 6.624 289.134 5.168C290.174 3.696 291.574 2.576 293.334 1.808C295.094 1.024 297.046 0.631999 299.19 0.631999C301.11 0.631999 302.782 0.919999 304.206 1.496C305.646 2.056 306.846 2.816 307.806 3.776C308.766 4.72 309.486 5.776 309.966 6.944C310.446 8.096 310.686 9.256 310.686 10.424C310.686 12.44 310.006 14.272 308.646 15.92C307.286 17.568 305.318 19.072 302.742 20.432L309.366 27.416C309.782 27.096 310.238 26.704 310.734 26.24C311.246 25.76 311.758 25.264 312.27 24.752C312.782 24.24 313.262 23.744 313.71 23.264C314.174 22.784 314.558 22.376 314.862 22.04L319.662 26.648C318.75 27.688 317.806 28.728 316.83 29.768C315.854 30.808 314.99 31.672 314.238 32.36L322.422 41H312.654L308.43 36.56C306.558 38.208 304.51 39.488 302.286 40.4C300.078 41.312 297.718 41.768 295.206 41.768ZM296.262 34.376C297.478 34.376 298.694 34.112 299.91 33.584C301.126 33.056 302.278 32.296 303.366 31.304L295.878 23.72C294.374 24.296 293.19 25.136 292.326 26.24C291.462 27.328 291.03 28.528 291.03 29.84C291.03 30.8 291.254 31.624 291.702 32.312C292.166 32.984 292.798 33.496 293.598 33.848C294.398 34.2 295.286 34.376 296.262 34.376ZM298.806 16.16C299.926 15.552 300.862 14.952 301.614 14.36C302.366 13.768 302.926 13.152 303.294 12.512C303.678 11.856 303.87 11.136 303.87 10.352C303.87 9.536 303.678 8.816 303.294 8.192C302.926 7.552 302.414 7.056 301.758 6.704C301.118 6.336 300.382 6.152 299.55 6.152C298.75 6.152 298.038 6.328 297.414 6.68C296.79 7.032 296.302 7.52 295.95 8.144C295.614 8.752 295.446 9.456 295.446 10.256C295.446 10.896 295.566 11.528 295.806 12.152C296.046 12.76 296.406 13.392 296.886 14.048C297.382 14.688 298.022 15.392 298.806 16.16Z" fill="white"/>
</g>
<path d="M69.8952 112.206C70.5179 111.69 71.3166 111.426 72.2912 111.415C73.2658 111.405 74.0724 111.651 74.711 112.154L88.2945 122.787L101.542 111.865C102.164 111.348 102.948 111.072 103.892 111.038C104.837 111.004 105.658 111.262 106.357 111.813C106.996 112.316 107.321 112.961 107.334 113.75C107.346 114.538 107.041 115.19 106.418 115.707L90.7946 128.672C90.4549 128.954 90.0854 129.155 89.6859 129.276C89.2864 129.398 88.8573 129.46 88.3986 129.463C87.94 129.468 87.5091 129.415 87.106 129.304C86.7029 129.194 86.3272 129 85.9788 128.724L69.956 116.1C69.3174 115.597 68.9773 114.964 68.9355 114.2C68.8938 113.437 69.2137 112.772 69.8952 112.206ZM70.1817 130.563C70.8044 130.047 71.603 129.783 72.5776 129.773C73.5523 129.762 74.3589 130.008 74.9975 130.511L88.5809 141.145L101.828 130.222C102.451 129.705 103.234 129.43 104.179 129.395C105.123 129.361 105.945 129.619 106.644 130.17C107.282 130.673 107.608 131.319 107.62 132.107C107.632 132.895 107.327 133.547 106.705 134.064L91.081 147.029C90.7414 147.311 90.3718 147.512 89.9724 147.633C89.5729 147.755 89.1438 147.817 88.6851 147.82C88.2265 147.825 87.7956 147.771 87.3924 147.659C86.9893 147.546 86.6136 147.354 86.2653 147.081L70.2425 134.457C69.6039 133.954 69.2637 133.321 69.222 132.557C69.1802 131.794 69.5002 131.129 70.1817 130.563Z" fill="white" fill-opacity="0.53"/>
<g filter="url(#filter1_d_39_44)">
<path d="M68.1188 94V54.4H81.6068C84.1828 54.4 86.4708 54.848 88.4708 55.744C90.4708 56.64 92.0468 57.976 93.1988 59.752C94.3508 61.512 94.9268 63.712 94.9268 66.352C94.9268 68.976 94.3508 71.216 93.1988 73.072C92.0468 74.928 90.4708 76.352 88.4708 77.344C86.4708 78.32 84.1828 78.808 81.6068 78.808H75.8948V94H68.1188ZM75.8948 72.592H79.2068C80.5668 72.592 81.8148 72.392 82.9508 71.992C84.1028 71.592 85.0308 70.952 85.7348 70.072C86.4388 69.192 86.7908 68.032 86.7908 66.592C86.7908 65.136 86.4388 63.976 85.7348 63.112C85.0308 62.232 84.1028 61.6 82.9508 61.216C81.8148 60.816 80.5668 60.616 79.2068 60.616H75.8948V72.592ZM102.103 94V54.4H109.879V70.744H124.687V54.4H132.439V94H124.687V77.56H109.879V94H102.103ZM147.851 94V76.36L133.475 54.4H142.835L151.739 68.44L160.643 54.4H170.003L155.627 76.36V94H147.851ZM183.345 94.768C181.505 94.768 179.809 94.56 178.257 94.144C176.705 93.744 175.313 93.24 174.081 92.632C172.865 92.008 171.817 91.368 170.937 90.712C170.057 90.056 169.361 89.48 168.849 88.984L172.833 82.552C173.361 83.016 173.993 83.536 174.729 84.112C175.465 84.688 176.289 85.24 177.201 85.768C178.113 86.28 179.097 86.712 180.153 87.064C181.225 87.4 182.361 87.568 183.561 87.568C184.681 87.568 185.665 87.392 186.513 87.04C187.377 86.688 188.057 86.168 188.553 85.48C189.049 84.776 189.297 83.904 189.297 82.864C189.297 81.92 189.097 81.12 188.697 80.464C188.297 79.792 187.705 79.192 186.921 78.664C186.153 78.12 185.201 77.592 184.065 77.08C182.945 76.552 181.665 75.976 180.225 75.352C179.153 74.872 178.129 74.328 177.153 73.72C176.193 73.096 175.337 72.376 174.585 71.56C173.833 70.744 173.233 69.824 172.785 68.8C172.353 67.76 172.137 66.6 172.137 65.32C172.137 63.8 172.441 62.344 173.049 60.952C173.657 59.56 174.521 58.32 175.641 57.232C176.777 56.144 178.121 55.28 179.673 54.64C181.241 54 182.985 53.68 184.905 53.68C186.345 53.68 187.785 53.872 189.225 54.256C190.665 54.64 192.009 55.144 193.257 55.768C194.505 56.392 195.561 57.072 196.425 57.808L193.185 63.904C192.497 63.312 191.713 62.784 190.833 62.32C189.969 61.84 189.041 61.456 188.049 61.168C187.073 60.88 186.081 60.736 185.073 60.736C183.937 60.736 182.969 60.936 182.169 61.336C181.385 61.736 180.777 62.272 180.345 62.944C179.929 63.6 179.721 64.336 179.721 65.152C179.721 65.824 179.857 66.4 180.129 66.88C180.417 67.344 180.817 67.752 181.329 68.104C181.841 68.44 182.457 68.768 183.177 69.088C183.897 69.392 184.689 69.72 185.553 70.072C187.409 70.856 189.089 71.632 190.593 72.4C192.097 73.168 193.385 74.024 194.457 74.968C195.529 75.896 196.345 76.984 196.905 78.232C197.481 79.48 197.769 80.968 197.769 82.696C197.769 85.224 197.161 87.392 195.945 89.2C194.745 91.008 193.065 92.392 190.905 93.352C188.745 94.296 186.225 94.768 183.345 94.768ZM205.744 94V54.4H213.52V94H205.744ZM242.185 94.768C239.193 94.768 236.385 94.24 233.761 93.184C231.137 92.128 228.825 90.664 226.825 88.792C224.825 86.904 223.265 84.72 222.145 82.24C221.025 79.76 220.465 77.096 220.465 74.248C220.465 71.384 221.025 68.712 222.145 66.232C223.281 63.736 224.841 61.552 226.825 59.68C228.825 57.792 231.129 56.32 233.737 55.264C236.361 54.208 239.161 53.68 242.137 53.68C244.569 53.68 246.881 54.024 249.073 54.712C251.281 55.4 253.169 56.304 254.737 57.424L251.377 64.024C250.305 63.176 249.001 62.512 247.465 62.032C245.929 61.552 244.321 61.312 242.641 61.312C240.673 61.312 238.849 61.64 237.169 62.296C235.505 62.952 234.049 63.864 232.801 65.032C231.569 66.2 230.609 67.568 229.921 69.136C229.233 70.704 228.889 72.4 228.889 74.224C228.889 76.048 229.233 77.744 229.921 79.312C230.609 80.88 231.569 82.248 232.801 83.416C234.049 84.584 235.505 85.496 237.169 86.152C238.849 86.808 240.673 87.136 242.641 87.136C244.321 87.136 245.929 86.896 247.465 86.416C249.001 85.936 250.305 85.272 251.377 84.424L254.737 91.024C253.233 92.112 251.385 93.008 249.193 93.712C247.001 94.416 244.665 94.768 242.185 94.768ZM256.112 94L272.024 54.4H279.248L295.136 94H286.76L283.4 84.976H267.848L264.488 94H256.112ZM270.512 78.16H280.76L275.624 64.888L270.512 78.16ZM300.994 94V54.4H308.77V87.184H323.074V94H300.994ZM119.728 148V108.4H127.504V124.744H142.312V108.4H150.064V148H142.312V131.56H127.504V148H119.728ZM160.884 148V108.4H182.916V115.216H168.66V124.744H182.34V131.56H168.66V141.184H182.916V148H160.884ZM187.769 148L203.681 108.4H210.905L226.793 148H218.417L215.057 138.976H199.505L196.145 148H187.769ZM202.169 132.16H212.417L207.281 118.888L202.169 132.16ZM232.65 148V108.4H240.426V141.184H254.73V148H232.65ZM264.14 148V115.264H254.108V108.4H281.948V115.264H271.892V148H264.14ZM288.244 148V108.4H296.02V124.744H310.828V108.4H318.58V148H310.828V131.56H296.02V148H288.244Z" fill="white"/>
</g>
<defs>
<filter id="filter0_d_39_44" x="47.5286" y="0.632" width="278.894" height="49.136" filterUnits="userSpaceOnUse" color-interpolation-filters="sRGB">
<feFlood flood-opacity="0" result="BackgroundImageFix"/>
<feColorMatrix in="SourceAlpha" type="matrix" values="0 0 0 0 0 0 0 0 0 0 0 0 0 0 0 0 0 0 127 0" result="hardAlpha"/>
<feOffset dy="4"/>
<feGaussianBlur stdDeviation="2"/>
<feComposite in2="hardAlpha" operator="out"/>
<feColorMatrix type="matrix" values="0 0 0 0 0 0 0 0 0 0 0 0 0 0 0 0 0 0 0.25 0"/>
<feBlend mode="normal" in2="BackgroundImageFix" result="effect1_dropShadow_39_44"/>
<feBlend mode="normal" in="SourceGraphic" in2="effect1_dropShadow_39_44" result="shape"/>
</filter>
<filter id="filter1_d_39_44" x="64.1187" y="53.68" width="262.955" height="102.32" filterUnits="userSpaceOnUse" color-interpolation-filters="sRGB">
<feFlood flood-opacity="0" result="BackgroundImageFix"/>
<feColorMatrix in="SourceAlpha" type="matrix" values="0 0 0 0 0 0 0 0 0 0 0 0 0 0 0 0 0 0 127 0" result="hardAlpha"/>
<feOffset dy="4"/>
<feGaussianBlur stdDeviation="2"/>
<feComposite in2="hardAlpha" operator="out"/>
<feColorMatrix type="matrix" values="0 0 0 0 0 0 0 0 0 0 0 0 0 0 0 0 0 0 0.25 0"/>
<feBlend mode="normal" in2="BackgroundImageFix" result="effect1_dropShadow_39_44"/>
<feBlend mode="normal" in="SourceGraphic" in2="effect1_dropShadow_39_44" result="shape"/>
</filter>
</defs>
</svg>
