<svg width="325" height="124" viewBox="0 0 325 124" fill="none" xmlns="http://www.w3.org/2000/svg">
<g filter="url(#filter0_d_39_45)">
<path d="M5.4 41V1.4H13.176V34.184H27.48V41H5.4ZM33.8063 41V1.4H41.5823V41H33.8063ZM52.4156 41V1.4H74.6636V8.216H58.3196L60.1916 6.512V19.904L58.3196 17.744H73.5836V24.56H58.3196L60.1916 22.4V41H52.4156ZM82.5094 41V1.4H104.541V8.216H90.2854V17.744H103.965V24.56H90.2854V34.184H104.541V41H82.5094ZM124.376 41.768C122.536 41.768 120.84 41.56 119.288 41.144C117.736 40.744 116.344 40.24 115.112 39.632C113.896 39.008 112.848 38.368 111.968 37.712C111.088 37.056 110.392 36.48 109.88 35.984L113.864 29.552C114.392 30.016 115.024 30.536 115.76 31.112C116.496 31.688 117.32 32.24 118.232 32.768C119.144 33.28 120.128 33.712 121.184 34.064C122.256 34.4 123.392 34.568 124.592 34.568C125.712 34.568 126.696 34.392 127.544 34.04C128.408 33.688 129.088 33.168 129.584 32.48C130.08 31.776 130.328 30.904 130.328 29.864C130.328 28.92 130.128 28.12 129.728 27.464C129.328 26.792 128.736 26.192 127.952 25.664C127.184 25.12 126.232 24.592 125.096 24.08C123.976 23.552 122.696 22.976 121.256 22.352C120.184 21.872 119.16 21.328 118.184 20.72C117.224 20.096 116.368 19.376 115.616 18.56C114.864 17.744 114.264 16.824 113.816 15.8C113.384 14.76 113.168 13.6 113.168 12.32C113.168 10.8 113.472 9.344 114.08 7.952C114.688 6.56 115.552 5.32 116.672 4.232C117.808 3.144 119.152 2.28 120.704 1.64C122.272 0.999998 124.016 0.679998 125.936 0.679998C127.376 0.679998 128.816 0.871998 130.256 1.256C131.696 1.64 133.04 2.144 134.288 2.768C135.536 3.392 136.592 4.072 137.456 4.808L134.216 10.904C133.528 10.312 132.744 9.784 131.864 9.32C131 8.84 130.072 8.456 129.08 8.168C128.104 7.88 127.112 7.736 126.104 7.736C124.968 7.736 124 7.936 123.2 8.336C122.416 8.736 121.808 9.272 121.376 9.944C120.96 10.6 120.752 11.336 120.752 12.152C120.752 12.824 120.888 13.4 121.16 13.88C121.448 14.344 121.848 14.752 122.36 15.104C122.872 15.44 123.488 15.768 124.208 16.088C124.928 16.392 125.72 16.72 126.584 17.072C128.44 17.856 130.12 18.632 131.624 19.4C133.128 20.168 134.416 21.024 135.488 21.968C136.56 22.896 137.376 23.984 137.936 25.232C138.512 26.48 138.8 27.968 138.8 29.696C138.8 32.224 138.192 34.392 136.976 36.2C135.776 38.008 134.096 39.392 131.936 40.352C129.776 41.296 127.256 41.768 124.376 41.768ZM150.046 41V8.264H140.014V1.4H167.854V8.264H157.798V41H150.046ZM183.054 41V23.36L168.678 1.4H178.038L186.942 15.44L195.846 1.4H205.206L190.83 23.36V41H183.054ZM210.525 41V1.4H218.301V34.184H232.605V41H210.525ZM238.931 41V1.4H260.963V8.216H246.707V17.744H260.387V24.56H246.707V34.184H260.963V41H238.931Z" fill="white"/>
</g>
<path d="M11.5962 54.4741C12.357 53.8427 13.3329 53.5205 14.5238 53.5077C15.7147 53.4948 16.7004 53.7958 17.4807 54.4106L34.0787 67.4033L50.2657 54.0566C51.0266 53.4252 51.984 53.0886 53.138 53.0467C54.2921 53.0047 55.2961 53.3202 56.1502 53.9931C56.9305 54.6079 57.3282 55.3967 57.3432 56.3597C57.3582 57.3226 56.9853 58.1198 56.2244 58.7512L37.1336 74.5937C36.7186 74.9381 36.267 75.1843 35.7789 75.3324C35.2908 75.4804 34.7665 75.5563 34.206 75.5601C33.6456 75.5661 33.1191 75.5016 32.6265 75.3664C32.1339 75.2312 31.6748 74.9948 31.2492 74.6572L11.6704 59.2322C10.8901 58.6174 10.4745 57.8435 10.4235 56.9104C10.3725 55.9773 10.7634 55.1652 11.5962 54.4741ZM11.9462 76.9051C12.7071 76.2737 13.683 75.9516 14.8739 75.9387C16.0648 75.9259 17.0504 76.2268 17.8307 76.8416L34.4287 89.8344L50.6157 76.4877C51.3766 75.8563 52.334 75.5196 53.4881 75.4777C54.6421 75.4358 55.6461 75.7513 56.5002 76.4242C57.2805 77.0389 57.6782 77.8278 57.6932 78.7907C57.7083 79.7537 57.3353 80.5509 56.5745 81.1823L37.4837 97.0247C37.0687 97.3691 36.6171 97.6154 36.1289 97.7634C35.6408 97.9114 35.1165 97.9873 34.556 97.9911C33.9956 97.9972 33.4691 97.9315 32.9765 97.794C32.4839 97.6566 32.0248 97.4213 31.5992 97.0883L12.0205 81.6632C11.2402 81.0485 10.8245 80.2745 10.7735 79.3414C10.7225 78.4083 11.1134 77.5962 11.9462 76.9051Z" fill="white" fill-opacity="0.53"/>
<g filter="url(#filter1_d_39_45)">
<path d="M90.0196 94.768C87.4596 94.768 85.2036 94.32 83.2516 93.424C81.3156 92.528 79.8036 91.272 78.7156 89.656C77.6276 88.04 77.0836 86.152 77.0836 83.992C77.0836 81.464 77.8756 79.264 79.4596 77.392C81.0596 75.504 83.4676 73.888 86.6836 72.544C85.6276 71.28 84.7796 70.152 84.1396 69.16C83.5156 68.152 83.0676 67.192 82.7956 66.28C82.5236 65.368 82.3876 64.432 82.3876 63.472C82.3876 61.392 82.9076 59.624 83.9476 58.168C84.9876 56.696 86.3876 55.576 88.1476 54.808C89.9076 54.024 91.8596 53.632 94.0036 53.632C95.9236 53.632 97.5956 53.92 99.0196 54.496C100.46 55.056 101.66 55.816 102.62 56.776C103.58 57.72 104.3 58.776 104.78 59.944C105.26 61.096 105.5 62.256 105.5 63.424C105.5 65.44 104.82 67.272 103.46 68.92C102.1 70.568 100.132 72.072 97.5556 73.432L104.18 80.416C104.596 80.096 105.052 79.704 105.548 79.24C106.06 78.76 106.572 78.264 107.084 77.752C107.596 77.24 108.076 76.744 108.524 76.264C108.988 75.784 109.372 75.376 109.676 75.04L114.476 79.648C113.564 80.688 112.62 81.728 111.644 82.768C110.668 83.808 109.804 84.672 109.052 85.36L117.236 94H107.468L103.244 89.56C101.372 91.208 99.3236 92.488 97.0996 93.4C94.8916 94.312 92.5316 94.768 90.0196 94.768ZM91.0756 87.376C92.2916 87.376 93.5076 87.112 94.7236 86.584C95.9396 86.056 97.0916 85.296 98.1796 84.304L90.6916 76.72C89.1876 77.296 88.0036 78.136 87.1396 79.24C86.2756 80.328 85.8436 81.528 85.8436 82.84C85.8436 83.8 86.0676 84.624 86.5156 85.312C86.9796 85.984 87.6116 86.496 88.4116 86.848C89.2116 87.2 90.0996 87.376 91.0756 87.376ZM93.6196 69.16C94.7396 68.552 95.6756 67.952 96.4276 67.36C97.1796 66.768 97.7396 66.152 98.1076 65.512C98.4916 64.856 98.6836 64.136 98.6836 63.352C98.6836 62.536 98.4916 61.816 98.1076 61.192C97.7396 60.552 97.2276 60.056 96.5716 59.704C95.9316 59.336 95.1956 59.152 94.3636 59.152C93.5636 59.152 92.8516 59.328 92.2276 59.68C91.6036 60.032 91.1156 60.52 90.7636 61.144C90.4276 61.752 90.2596 62.456 90.2596 63.256C90.2596 63.896 90.3796 64.528 90.6196 65.152C90.8596 65.76 91.2196 66.392 91.6996 67.048C92.1956 67.688 92.8356 68.392 93.6196 69.16ZM136.822 94V54.4H144.598V70.744H159.406V54.4H167.158V94H159.406V77.56H144.598V94H136.822ZM173.034 94L188.946 54.4H196.17L212.058 94H203.682L200.322 84.976H184.77L181.41 94H173.034ZM187.434 78.16H197.682L192.546 64.888L187.434 78.16ZM215.852 94V54.4H227.204C231.012 54.4 233.996 55.232 236.156 56.896C238.316 58.56 239.396 61.048 239.396 64.36C239.396 68.472 237.7 71.376 234.308 73.072C237.076 73.504 239.196 74.568 240.668 76.264C242.156 77.944 242.9 80.152 242.9 82.888C242.9 85.192 242.38 87.176 241.34 88.84C240.3 90.504 238.82 91.784 236.9 92.68C234.98 93.56 232.708 94 230.084 94H215.852ZM223.604 70.432H225.404C227.5 70.432 229.108 70 230.228 69.136C231.348 68.256 231.908 67 231.908 65.368C231.908 63.72 231.364 62.488 230.276 61.672C229.188 60.84 227.564 60.424 225.404 60.424H223.604V70.432ZM223.604 87.952H227.444C229.876 87.952 231.7 87.504 232.916 86.608C234.148 85.712 234.764 84.392 234.764 82.648C234.764 80.872 234.132 79.512 232.868 78.568C231.62 77.608 229.812 77.128 227.444 77.128H223.604V87.952ZM249.697 94V54.4H257.473V94H249.697ZM271.577 94V61.264H261.545V54.4H289.385V61.264H279.329V94H271.577ZM306.001 94.768C304.161 94.768 302.465 94.56 300.913 94.144C299.361 93.744 297.969 93.24 296.737 92.632C295.521 92.008 294.473 91.368 293.593 90.712C292.713 90.056 292.017 89.48 291.505 88.984L295.489 82.552C296.017 83.016 296.649 83.536 297.385 84.112C298.121 84.688 298.945 85.24 299.857 85.768C300.769 86.28 301.753 86.712 302.809 87.064C303.881 87.4 305.017 87.568 306.217 87.568C307.337 87.568 308.321 87.392 309.169 87.04C310.033 86.688 310.713 86.168 311.209 85.48C311.705 84.776 311.953 83.904 311.953 82.864C311.953 81.92 311.753 81.12 311.353 80.464C310.953 79.792 310.361 79.192 309.577 78.664C308.809 78.12 307.857 77.592 306.721 77.08C305.601 76.552 304.321 75.976 302.881 75.352C301.809 74.872 300.785 74.328 299.809 73.72C298.849 73.096 297.993 72.376 297.241 71.56C296.489 70.744 295.889 69.824 295.441 68.8C295.009 67.76 294.793 66.6 294.793 65.32C294.793 63.8 295.097 62.344 295.705 60.952C296.313 59.56 297.177 58.32 298.297 57.232C299.433 56.144 300.777 55.28 302.329 54.64C303.897 54 305.641 53.68 307.561 53.68C309.001 53.68 310.441 53.872 311.881 54.256C313.321 54.64 314.665 55.144 315.913 55.768C317.161 56.392 318.217 57.072 319.081 57.808L315.841 63.904C315.153 63.312 314.369 62.784 313.489 62.32C312.625 61.84 311.697 61.456 310.705 61.168C309.729 60.88 308.737 60.736 307.729 60.736C306.593 60.736 305.625 60.936 304.825 61.336C304.041 61.736 303.433 62.272 303.001 62.944C302.585 63.6 302.377 64.336 302.377 65.152C302.377 65.824 302.513 66.4 302.785 66.88C303.073 67.344 303.473 67.752 303.985 68.104C304.497 68.44 305.113 68.768 305.833 69.088C306.553 69.392 307.345 69.72 308.209 70.072C310.065 70.856 311.745 71.632 313.249 72.4C314.753 73.168 316.041 74.024 317.113 74.968C318.185 75.896 319.001 76.984 319.561 78.232C320.137 79.48 320.425 80.968 320.425 82.696C320.425 85.224 319.817 87.392 318.601 89.2C317.401 91.008 315.721 92.392 313.561 93.352C311.401 94.296 308.881 94.768 306.001 94.768Z" fill="white"/>
</g>
<defs>
<filter id="filter0_d_39_45" x="1.3999" y="0.679993" width="263.563" height="49.088" filterUnits="userSpaceOnUse" color-interpolation-filters="sRGB">
<feFlood flood-opacity="0" result="BackgroundImageFix"/>
<feColorMatrix in="SourceAlpha" type="matrix" values="0 0 0 0 0 0 0 0 0 0 0 0 0 0 0 0 0 0 127 0" result="hardAlpha"/>
<feOffset dy="4"/>
<feGaussianBlur stdDeviation="2"/>
<feComposite in2="hardAlpha" operator="out"/>
<feColorMatrix type="matrix" values="0 0 0 0 0 0 0 0 0 0 0 0 0 0 0 0 0 0 0.25 0"/>
<feBlend mode="normal" in2="BackgroundImageFix" result="effect1_dropShadow_39_45"/>
<feBlend mode="normal" in="SourceGraphic" in2="effect1_dropShadow_39_45" result="shape"/>
</filter>
<filter id="filter1_d_39_45" x="73.0837" y="53.632" width="251.342" height="49.136" filterUnits="userSpaceOnUse" color-interpolation-filters="sRGB">
<feFlood flood-opacity="0" result="BackgroundImageFix"/>
<feColorMatrix in="SourceAlpha" type="matrix" values="0 0 0 0 0 0 0 0 0 0 0 0 0 0 0 0 0 0 127 0" result="hardAlpha"/>
<feOffset dy="4"/>
<feGaussianBlur stdDeviation="2"/>
<feComposite in2="hardAlpha" operator="out"/>
<feColorMatrix type="matrix" values="0 0 0 0 0 0 0 0 0 0 0 0 0 0 0 0 0 0 0.25 0"/>
<feBlend mode="normal" in2="BackgroundImageFix" result="effect1_dropShadow_39_45"/>
<feBlend mode="normal" in="SourceGraphic" in2="effect1_dropShadow_39_45" result="shape"/>
</filter>
</defs>
</svg>
