<svg width="501" height="45" viewBox="0 0 501 45" fill="none" xmlns="http://www.w3.org/2000/svg">
<g filter="url(#filter0_d_37_36)">
<path d="M64.5 35V2H70.98V29.32H82.9V35H64.5ZM88.1719 35V2H94.6519V35H88.1719ZM103.68 35V2H122.22V7.68H108.6L110.16 6.26V17.42L108.6 15.62H121.32V21.3H108.6L110.16 19.5V35H103.68ZM128.758 35V2H147.118V7.68H135.238V15.62H146.638V21.3H135.238V29.32H147.118V35H128.758ZM163.647 35.64C162.114 35.64 160.7 35.4667 159.407 35.12C158.114 34.7867 156.954 34.3667 155.927 33.86C154.914 33.34 154.04 32.8067 153.307 32.26C152.574 31.7133 151.994 31.2333 151.567 30.82L154.887 25.46C155.327 25.8467 155.854 26.28 156.467 26.76C157.08 27.24 157.767 27.7 158.527 28.14C159.287 28.5667 160.107 28.9267 160.987 29.22C161.88 29.5 162.827 29.64 163.827 29.64C164.76 29.64 165.58 29.4933 166.287 29.2C167.007 28.9067 167.574 28.4733 167.987 27.9C168.4 27.3133 168.607 26.5867 168.607 25.72C168.607 24.9333 168.44 24.2667 168.107 23.72C167.774 23.16 167.28 22.66 166.627 22.22C165.987 21.7667 165.194 21.3267 164.247 20.9C163.314 20.46 162.247 19.98 161.047 19.46C160.154 19.06 159.3 18.6067 158.487 18.1C157.687 17.58 156.974 16.98 156.347 16.3C155.72 15.62 155.22 14.8533 154.847 14C154.487 13.1333 154.307 12.1667 154.307 11.1C154.307 9.83333 154.56 8.62 155.067 7.46C155.574 6.3 156.294 5.26666 157.227 4.36C158.174 3.45333 159.294 2.73333 160.587 2.2C161.894 1.66667 163.347 1.4 164.947 1.4C166.147 1.4 167.347 1.56 168.547 1.88C169.747 2.2 170.867 2.62 171.907 3.14C172.947 3.66 173.827 4.22667 174.547 4.84L171.847 9.92C171.274 9.42667 170.62 8.98667 169.887 8.6C169.167 8.2 168.394 7.88 167.567 7.64C166.754 7.4 165.927 7.28 165.087 7.28C164.14 7.28 163.334 7.44667 162.667 7.78C162.014 8.11333 161.507 8.56 161.147 9.12C160.8 9.66667 160.627 10.28 160.627 10.96C160.627 11.52 160.74 12 160.967 12.4C161.207 12.7867 161.54 13.1267 161.967 13.42C162.394 13.7 162.907 13.9733 163.507 14.24C164.107 14.4933 164.767 14.7667 165.487 15.06C167.034 15.7133 168.434 16.36 169.687 17C170.94 17.64 172.014 18.3533 172.907 19.14C173.8 19.9133 174.48 20.82 174.947 21.86C175.427 22.9 175.667 24.14 175.667 25.58C175.667 27.6867 175.16 29.4933 174.147 31C173.147 32.5067 171.747 33.66 169.947 34.46C168.147 35.2467 166.047 35.64 163.647 35.64ZM185.038 35V7.72H176.678V2H199.878V7.72H191.498V35H185.038ZM212.545 35V20.3L200.565 2H208.365L215.785 13.7L223.205 2H231.005L219.025 20.3V35H212.545ZM235.438 35V2H241.918V29.32H253.838V35H235.438ZM259.109 35V2H277.469V7.68H265.589V15.62H276.989V21.3H265.589V29.32H277.469V35H259.109ZM304.6 35.64C302.466 35.64 300.586 35.2667 298.96 34.52C297.346 33.7733 296.086 32.7267 295.18 31.38C294.273 30.0333 293.82 28.46 293.82 26.66C293.82 24.5533 294.48 22.72 295.8 21.16C297.133 19.5867 299.14 18.24 301.82 17.12C300.94 16.0667 300.233 15.1267 299.7 14.3C299.18 13.46 298.806 12.66 298.58 11.9C298.353 11.14 298.24 10.36 298.24 9.56C298.24 7.82667 298.673 6.35333 299.54 5.14C300.406 3.91333 301.573 2.98 303.04 2.34C304.506 1.68667 306.133 1.36 307.92 1.36C309.52 1.36 310.913 1.6 312.1 2.08C313.3 2.54667 314.3 3.18 315.1 3.98C315.9 4.76666 316.5 5.64667 316.9 6.62C317.3 7.58 317.5 8.54666 317.5 9.52C317.5 11.2 316.933 12.7267 315.8 14.1C314.666 15.4733 313.026 16.7267 310.88 17.86L316.4 23.68C316.746 23.4133 317.126 23.0867 317.54 22.7C317.966 22.3 318.393 21.8867 318.82 21.46C319.246 21.0333 319.646 20.62 320.02 20.22C320.406 19.82 320.726 19.48 320.98 19.2L324.98 23.04C324.22 23.9067 323.433 24.7733 322.62 25.64C321.806 26.5067 321.086 27.2267 320.46 27.8L327.28 35H319.14L315.62 31.3C314.06 32.6733 312.353 33.74 310.5 34.5C308.66 35.26 306.693 35.64 304.6 35.64ZM305.48 29.48C306.493 29.48 307.506 29.26 308.52 28.82C309.533 28.38 310.493 27.7467 311.4 26.92L305.16 20.6C303.906 21.08 302.92 21.78 302.2 22.7C301.48 23.6067 301.12 24.6067 301.12 25.7C301.12 26.5 301.306 27.1867 301.68 27.76C302.066 28.32 302.593 28.7467 303.26 29.04C303.926 29.3333 304.666 29.48 305.48 29.48ZM307.6 14.3C308.533 13.7933 309.313 13.2933 309.94 12.8C310.566 12.3067 311.033 11.7933 311.34 11.26C311.66 10.7133 311.82 10.1133 311.82 9.46C311.82 8.78 311.66 8.18 311.34 7.66C311.033 7.12667 310.606 6.71333 310.06 6.42C309.526 6.11333 308.913 5.96 308.22 5.96C307.553 5.96 306.96 6.10667 306.44 6.4C305.92 6.69333 305.513 7.1 305.22 7.62C304.94 8.12666 304.8 8.71333 304.8 9.38C304.8 9.91333 304.9 10.44 305.1 10.96C305.3 11.4667 305.6 11.9933 306 12.54C306.413 13.0733 306.946 13.66 307.6 14.3ZM343.602 35V2H350.082V15.62H362.422V2H368.882V35H362.422V21.3H350.082V35H343.602ZM373.778 35L387.038 2H393.058L406.298 35H399.318L396.518 27.48H383.558L380.758 35H373.778ZM385.778 21.8H394.318L390.038 10.74L385.778 21.8ZM409.46 35V2H418.92C422.093 2 424.58 2.69333 426.38 4.08C428.18 5.46667 429.08 7.54 429.08 10.3C429.08 13.7267 427.666 16.1467 424.84 17.56C427.146 17.92 428.913 18.8067 430.14 20.22C431.38 21.62 432 23.46 432 25.74C432 27.66 431.566 29.3133 430.7 30.7C429.833 32.0867 428.6 33.1533 427 33.9C425.4 34.6333 423.506 35 421.32 35H409.46ZM415.92 15.36H417.42C419.166 15.36 420.506 15 421.44 14.28C422.373 13.5467 422.84 12.5 422.84 11.14C422.84 9.76667 422.386 8.74 421.48 8.06C420.573 7.36667 419.22 7.02 417.42 7.02H415.92V15.36ZM415.92 29.96H419.12C421.146 29.96 422.666 29.5867 423.68 28.84C424.706 28.0933 425.22 26.9933 425.22 25.54C425.22 24.06 424.693 22.9267 423.64 22.14C422.6 21.34 421.093 20.94 419.12 20.94H415.92V29.96ZM437.664 35V2H444.144V35H437.664ZM455.898 35V7.72H447.538V2H470.738V7.72H462.358V35H455.898ZM484.584 35.64C483.051 35.64 481.638 35.4667 480.344 35.12C479.051 34.7867 477.891 34.3667 476.864 33.86C475.851 33.34 474.978 32.8067 474.244 32.26C473.511 31.7133 472.931 31.2333 472.504 30.82L475.824 25.46C476.264 25.8467 476.791 26.28 477.404 26.76C478.018 27.24 478.704 27.7 479.464 28.14C480.224 28.5667 481.044 28.9267 481.924 29.22C482.818 29.5 483.764 29.64 484.764 29.64C485.698 29.64 486.518 29.4933 487.224 29.2C487.944 28.9067 488.511 28.4733 488.924 27.9C489.338 27.3133 489.544 26.5867 489.544 25.72C489.544 24.9333 489.378 24.2667 489.044 23.72C488.711 23.16 488.218 22.66 487.564 22.22C486.924 21.7667 486.131 21.3267 485.184 20.9C484.251 20.46 483.184 19.98 481.984 19.46C481.091 19.06 480.238 18.6067 479.424 18.1C478.624 17.58 477.911 16.98 477.284 16.3C476.658 15.62 476.158 14.8533 475.784 14C475.424 13.1333 475.244 12.1667 475.244 11.1C475.244 9.83333 475.498 8.62 476.004 7.46C476.511 6.3 477.231 5.26666 478.164 4.36C479.111 3.45333 480.231 2.73333 481.524 2.2C482.831 1.66667 484.284 1.4 485.884 1.4C487.084 1.4 488.284 1.56 489.484 1.88C490.684 2.2 491.804 2.62 492.844 3.14C493.884 3.66 494.764 4.22667 495.484 4.84L492.784 9.92C492.211 9.42667 491.558 8.98667 490.824 8.6C490.104 8.2 489.331 7.88 488.504 7.64C487.691 7.4 486.864 7.28 486.024 7.28C485.078 7.28 484.271 7.44667 483.604 7.78C482.951 8.11333 482.444 8.56 482.084 9.12C481.738 9.66667 481.564 10.28 481.564 10.96C481.564 11.52 481.678 12 481.904 12.4C482.144 12.7867 482.478 13.1267 482.904 13.42C483.331 13.7 483.844 13.9733 484.444 14.24C485.044 14.4933 485.704 14.7667 486.424 15.06C487.971 15.7133 489.371 16.36 490.624 17C491.878 17.64 492.951 18.3533 493.844 19.14C494.738 19.9133 495.418 20.82 495.884 21.86C496.364 22.9 496.604 24.14 496.604 25.58C496.604 27.6867 496.098 29.4933 495.084 31C494.084 32.5067 492.684 33.66 490.884 34.46C489.084 35.2467 486.984 35.64 484.584 35.64Z" fill="white"/>
</g>
<path d="M1.03021 39.9403C0.375629 39.267 0.0483378 38.41 0.0483378 37.3694C0.0483378 36.3288 0.375629 35.4719 1.03021 34.7986L14.8658 20.4751L1.03021 6.15172C0.375629 5.4784 0.0328657 4.63736 0.00192169 3.6286C-0.0290223 2.61984 0.313741 1.74697 1.03021 1.00998C1.6848 0.33666 2.51791 0 3.52954 0C4.54117 0 5.37428 0.33666 6.02886 1.00998L22.453 17.9043C22.81 18.2715 23.0636 18.6694 23.2135 19.0979C23.3635 19.5264 23.4373 19.9855 23.4349 20.4751C23.4349 20.9648 23.3611 21.4239 23.2135 21.8524C23.0659 22.2809 22.8124 22.6787 22.453 23.046L6.02886 39.9403C5.37428 40.6136 4.55664 40.9662 3.57596 40.998C2.59527 41.0299 1.74669 40.6773 1.03021 39.9403ZM24.5953 39.9403C23.9407 39.267 23.6134 38.41 23.6134 37.3694C23.6134 36.3288 23.9407 35.4719 24.5953 34.7986L38.4308 20.4751L24.5953 6.15172C23.9407 5.4784 23.5979 4.63736 23.567 3.6286C23.536 2.61984 23.8788 1.74697 24.5953 1.00998C25.2499 0.33666 26.083 0 27.0946 0C28.1062 0 28.9393 0.33666 29.5939 1.00998L46.0181 17.9043C46.3751 18.2715 46.6286 18.6694 46.7786 19.0979C46.9285 19.5264 47.0023 19.9855 46.9999 20.4751C46.9999 20.9648 46.925 21.4239 46.775 21.8524C46.625 22.2809 46.3727 22.6787 46.0181 23.046L29.5939 39.9403C28.9393 40.6136 28.1217 40.9662 27.141 40.998C26.1603 41.0299 25.3118 40.6773 24.5953 39.9403Z" fill="white" fill-opacity="0.53"/>
<defs>
<filter id="filter0_d_37_36" x="60.5" y="1.35999" width="440.104" height="42.28" filterUnits="userSpaceOnUse" color-interpolation-filters="sRGB">
<feFlood flood-opacity="0" result="BackgroundImageFix"/>
<feColorMatrix in="SourceAlpha" type="matrix" values="0 0 0 0 0 0 0 0 0 0 0 0 0 0 0 0 0 0 127 0" result="hardAlpha"/>
<feOffset dy="4"/>
<feGaussianBlur stdDeviation="2"/>
<feComposite in2="hardAlpha" operator="out"/>
<feColorMatrix type="matrix" values="0 0 0 0 0 0 0 0 0 0 0 0 0 0 0 0 0 0 0.25 0"/>
<feBlend mode="normal" in2="BackgroundImageFix" result="effect1_dropShadow_37_36"/>
<feBlend mode="normal" in="SourceGraphic" in2="effect1_dropShadow_37_36" result="shape"/>
</filter>
</defs>
</svg>
