<svg width="699" height="46" viewBox="0 0 699 46" fill="none" xmlns="http://www.w3.org/2000/svg">
<g filter="url(#filter0_d_37_35)">
<path d="M57.98 36L61.26 3H68.14L76.02 23.64L83.9 3H90.78L94.06 36H87.58L85.54 14.64L78 35.18H74.02L66.5 14.64L64.44 36H57.98ZM101.531 36V3H119.891V8.68H108.011V16.62H119.411V22.3H108.011V30.32H119.891V36H101.531ZM127.82 36V3H134.3L148.52 25.2V3H155V36H148.52L134.3 13.8V36H127.82ZM166.718 36V8.72H158.358V3H181.558V8.72H173.178V36H166.718ZM180.771 36L194.031 3H200.051L213.291 36H206.311L203.511 28.48H190.551L187.751 36H180.771ZM192.771 22.8H201.311L197.031 11.74L192.771 22.8ZM218.172 36V3H224.652V30.32H236.572V36H218.172ZM261.045 36.64C258.912 36.64 257.032 36.2667 255.405 35.52C253.792 34.7733 252.532 33.7267 251.625 32.38C250.718 31.0333 250.265 29.46 250.265 27.66C250.265 25.5533 250.925 23.72 252.245 22.16C253.578 20.5867 255.585 19.24 258.265 18.12C257.385 17.0667 256.678 16.1267 256.145 15.3C255.625 14.46 255.252 13.66 255.025 12.9C254.798 12.14 254.685 11.36 254.685 10.56C254.685 8.82667 255.118 7.35333 255.985 6.14C256.852 4.91333 258.018 3.98 259.485 3.34C260.952 2.68667 262.578 2.36 264.365 2.36C265.965 2.36 267.358 2.6 268.545 3.08C269.745 3.54667 270.745 4.18 271.545 4.98C272.345 5.76666 272.945 6.64667 273.345 7.62C273.745 8.58 273.945 9.54666 273.945 10.52C273.945 12.2 273.378 13.7267 272.245 15.1C271.112 16.4733 269.472 17.7267 267.325 18.86L272.845 24.68C273.192 24.4133 273.572 24.0867 273.985 23.7C274.412 23.3 274.838 22.8867 275.265 22.46C275.692 22.0333 276.092 21.62 276.465 21.22C276.852 20.82 277.172 20.48 277.425 20.2L281.425 24.04C280.665 24.9067 279.878 25.7733 279.065 26.64C278.252 27.5067 277.532 28.2267 276.905 28.8L283.725 36H275.585L272.065 32.3C270.505 33.6733 268.798 34.74 266.945 35.5C265.105 36.26 263.138 36.64 261.045 36.64ZM261.925 30.48C262.938 30.48 263.952 30.26 264.965 29.82C265.978 29.38 266.938 28.7467 267.845 27.92L261.605 21.6C260.352 22.08 259.365 22.78 258.645 23.7C257.925 24.6067 257.565 25.6067 257.565 26.7C257.565 27.5 257.752 28.1867 258.125 28.76C258.512 29.32 259.038 29.7467 259.705 30.04C260.372 30.3333 261.112 30.48 261.925 30.48ZM264.045 15.3C264.978 14.7933 265.758 14.2933 266.385 13.8C267.012 13.3067 267.478 12.7933 267.785 12.26C268.105 11.7133 268.265 11.1133 268.265 10.46C268.265 9.78 268.105 9.18 267.785 8.66C267.478 8.12667 267.052 7.71333 266.505 7.42C265.972 7.11333 265.358 6.96 264.665 6.96C263.998 6.96 263.405 7.10667 262.885 7.4C262.365 7.69333 261.958 8.1 261.665 8.62C261.385 9.12666 261.245 9.71333 261.245 10.38C261.245 10.9133 261.345 11.44 261.545 11.96C261.745 12.4667 262.045 12.9933 262.445 13.54C262.858 14.0733 263.392 14.66 264.045 15.3ZM300.047 36V3H311.287C313.434 3 315.34 3.37333 317.007 4.12C318.674 4.86666 319.987 5.98 320.947 7.46C321.907 8.92667 322.387 10.76 322.387 12.96C322.387 15.1467 321.907 17.0133 320.947 18.56C319.987 20.1067 318.674 21.2933 317.007 22.12C315.34 22.9333 313.434 23.34 311.287 23.34H306.527V36H300.047ZM306.527 18.16H309.287C310.42 18.16 311.46 17.9933 312.407 17.66C313.367 17.3267 314.14 16.7933 314.727 16.06C315.314 15.3267 315.607 14.36 315.607 13.16C315.607 11.9467 315.314 10.98 314.727 10.26C314.14 9.52667 313.367 9 312.407 8.68C311.46 8.34667 310.42 8.18 309.287 8.18H306.527V18.16ZM328.367 36V3H334.847V16.62H347.187V3H353.647V36H347.187V22.3H334.847V36H328.367ZM366.49 36V21.3L354.51 3H362.31L369.73 14.7L377.15 3H384.95L372.97 21.3V36H366.49ZM396.069 36.64C394.535 36.64 393.122 36.4667 391.829 36.12C390.535 35.7867 389.375 35.3667 388.349 34.86C387.335 34.34 386.462 33.8067 385.729 33.26C384.995 32.7133 384.415 32.2333 383.989 31.82L387.309 26.46C387.749 26.8467 388.275 27.28 388.889 27.76C389.502 28.24 390.189 28.7 390.949 29.14C391.709 29.5667 392.529 29.9267 393.409 30.22C394.302 30.5 395.249 30.64 396.249 30.64C397.182 30.64 398.002 30.4933 398.709 30.2C399.429 29.9067 399.995 29.4733 400.409 28.9C400.822 28.3133 401.029 27.5867 401.029 26.72C401.029 25.9333 400.862 25.2667 400.529 24.72C400.195 24.16 399.702 23.66 399.049 23.22C398.409 22.7667 397.615 22.3267 396.669 21.9C395.735 21.46 394.669 20.98 393.469 20.46C392.575 20.06 391.722 19.6067 390.909 19.1C390.109 18.58 389.395 17.98 388.769 17.3C388.142 16.62 387.642 15.8533 387.269 15C386.909 14.1333 386.729 13.1667 386.729 12.1C386.729 10.8333 386.982 9.62 387.489 8.46C387.995 7.3 388.715 6.26666 389.649 5.36C390.595 4.45333 391.715 3.73333 393.009 3.2C394.315 2.66667 395.769 2.4 397.369 2.4C398.569 2.4 399.769 2.56 400.969 2.88C402.169 3.2 403.289 3.62 404.329 4.14C405.369 4.66 406.249 5.22667 406.969 5.84L404.269 10.92C403.695 10.4267 403.042 9.98667 402.309 9.6C401.589 9.2 400.815 8.88 399.989 8.64C399.175 8.4 398.349 8.28 397.509 8.28C396.562 8.28 395.755 8.44667 395.089 8.78C394.435 9.11333 393.929 9.56 393.569 10.12C393.222 10.6667 393.049 11.28 393.049 11.96C393.049 12.52 393.162 13 393.389 13.4C393.629 13.7867 393.962 14.1267 394.389 14.42C394.815 14.7 395.329 14.9733 395.929 15.24C396.529 15.4933 397.189 15.7667 397.909 16.06C399.455 16.7133 400.855 17.36 402.109 18C403.362 18.64 404.435 19.3533 405.329 20.14C406.222 20.9133 406.902 21.82 407.369 22.86C407.849 23.9 408.089 25.14 408.089 26.58C408.089 28.6867 407.582 30.4933 406.569 32C405.569 33.5067 404.169 34.66 402.369 35.46C400.569 36.2467 398.469 36.64 396.069 36.64ZM414.734 36V3H421.214V36H414.734ZM445.102 36.64C442.609 36.64 440.269 36.2 438.082 35.32C435.896 34.44 433.969 33.22 432.302 31.66C430.636 30.0867 429.336 28.2667 428.402 26.2C427.469 24.1333 427.002 21.9133 427.002 19.54C427.002 17.1533 427.469 14.9267 428.402 12.86C429.349 10.78 430.649 8.96 432.302 7.4C433.969 5.82666 435.889 4.6 438.062 3.72C440.249 2.84 442.582 2.4 445.062 2.4C447.089 2.4 449.016 2.68667 450.842 3.26C452.682 3.83333 454.256 4.58666 455.562 5.52L452.762 11.02C451.869 10.3133 450.782 9.76 449.502 9.36C448.222 8.96 446.882 8.76 445.482 8.76C443.842 8.76 442.322 9.03333 440.922 9.58C439.536 10.1267 438.322 10.8867 437.282 11.86C436.256 12.8333 435.456 13.9733 434.882 15.28C434.309 16.5867 434.022 18 434.022 19.52C434.022 21.04 434.309 22.4533 434.882 23.76C435.456 25.0667 436.256 26.2067 437.282 27.18C438.322 28.1533 439.536 28.9133 440.922 29.46C442.322 30.0067 443.842 30.28 445.482 30.28C446.882 30.28 448.222 30.08 449.502 29.68C450.782 29.28 451.869 28.7267 452.762 28.02L455.562 33.52C454.309 34.4267 452.769 35.1733 450.942 35.76C449.116 36.3467 447.169 36.64 445.102 36.64ZM456.708 36L469.968 3H475.988L489.228 36H482.248L479.448 28.48H466.488L463.688 36H456.708ZM468.708 22.8H477.248L472.968 11.74L468.708 22.8ZM494.109 36V3H500.589V30.32H512.509V36H494.109ZM528.563 36V3H535.043V16.62H547.383V3H553.843V36H547.383V22.3H535.043V36H528.563ZM562.859 36V3H581.219V8.68H569.339V16.62H580.739V22.3H569.339V30.32H581.219V36H562.859ZM585.263 36L598.523 3H604.543L617.783 36H610.803L608.003 28.48H595.043L592.243 36H585.263ZM597.263 22.8H605.803L601.523 11.74L597.263 22.8ZM622.664 36V3H629.144V30.32H641.064V36H622.664ZM648.906 36V8.72H640.546V3H663.746V8.72H655.366V36H648.906ZM668.992 36V3H675.472V16.62H687.812V3H694.272V36H687.812V22.3H675.472V36H668.992Z" fill="white"/>
</g>
<path d="M1.03021 39.9403C0.375629 39.267 0.0483378 38.41 0.0483378 37.3694C0.0483378 36.3288 0.375629 35.4719 1.03021 34.7986L14.8658 20.4751L1.03021 6.15172C0.375629 5.4784 0.0328657 4.63736 0.00192169 3.6286C-0.0290223 2.61984 0.313741 1.74697 1.03021 1.00998C1.6848 0.33666 2.51791 0 3.52954 0C4.54117 0 5.37428 0.33666 6.02886 1.00998L22.453 17.9043C22.81 18.2715 23.0636 18.6694 23.2135 19.0979C23.3635 19.5264 23.4373 19.9855 23.4349 20.4751C23.4349 20.9648 23.3611 21.4239 23.2135 21.8524C23.0659 22.2809 22.8124 22.6787 22.453 23.046L6.02886 39.9403C5.37428 40.6136 4.55664 40.9662 3.57596 40.998C2.59527 41.0299 1.74669 40.6773 1.03021 39.9403ZM24.5953 39.9403C23.9407 39.267 23.6134 38.41 23.6134 37.3694C23.6134 36.3288 23.9407 35.4719 24.5953 34.7986L38.4308 20.4751L24.5953 6.15172C23.9407 5.4784 23.5979 4.63736 23.567 3.6286C23.536 2.61984 23.8788 1.74697 24.5953 1.00998C25.2499 0.33666 26.083 0 27.0946 0C28.1062 0 28.9393 0.33666 29.5939 1.00998L46.0181 17.9043C46.3751 18.2715 46.6286 18.6694 46.7786 19.0979C46.9285 19.5264 47.0023 19.9855 46.9999 20.4751C46.9999 20.9648 46.925 21.4239 46.775 21.8524C46.625 22.2809 46.3727 22.6787 46.0181 23.046L29.5939 39.9403C28.9393 40.6136 28.1217 40.9662 27.141 40.998C26.1603 41.0299 25.3118 40.6773 24.5953 39.9403Z" fill="white" fill-opacity="0.53"/>
<defs>
<filter id="filter0_d_37_35" x="53.98" y="2.35999" width="644.292" height="42.28" filterUnits="userSpaceOnUse" color-interpolation-filters="sRGB">
<feFlood flood-opacity="0" result="BackgroundImageFix"/>
<feColorMatrix in="SourceAlpha" type="matrix" values="0 0 0 0 0 0 0 0 0 0 0 0 0 0 0 0 0 0 127 0" result="hardAlpha"/>
<feOffset dy="4"/>
<feGaussianBlur stdDeviation="2"/>
<feComposite in2="hardAlpha" operator="out"/>
<feColorMatrix type="matrix" values="0 0 0 0 0 0 0 0 0 0 0 0 0 0 0 0 0 0 0.25 0"/>
<feBlend mode="normal" in2="BackgroundImageFix" result="effect1_dropShadow_37_35"/>
<feBlend mode="normal" in="SourceGraphic" in2="effect1_dropShadow_37_35" result="shape"/>
</filter>
</defs>
</svg>
