<svg width="697" height="50" viewBox="0 0 697 50" fill="none" xmlns="http://www.w3.org/2000/svg">
<g filter="url(#filter0_d_37_35)">
<path d="M55.98 39.9999L59.26 6.99991H66.14L74.02 27.6399L81.9 6.99991H88.78L92.06 39.9999H85.58L83.54 18.6399L76 39.1799H72.02L64.5 18.6399L62.44 39.9999H55.98ZM99.5313 39.9999V6.99991H117.891V12.6799H106.011V20.6199H117.411V26.2999H106.011V34.3199H117.891V39.9999H99.5313ZM125.82 39.9999V6.99991H132.3L146.52 29.1999V6.99991H153V39.9999H146.52L132.3 17.7999V39.9999H125.82ZM164.718 39.9999V12.7199H156.358V6.99991H179.558V12.7199H171.178V39.9999H164.718ZM178.771 39.9999L192.031 6.99991H198.051L211.291 39.9999H204.311L201.511 32.4799H188.551L185.751 39.9999H178.771ZM190.771 26.7999H199.311L195.031 15.7399L190.771 26.7999ZM216.172 39.9999V6.99991H222.652V34.3199H234.572V39.9999H216.172ZM259.045 40.6399C256.912 40.6399 255.032 40.2666 253.405 39.5199C251.792 38.7732 250.532 37.7266 249.625 36.3799C248.718 35.0332 248.265 33.4599 248.265 31.6599C248.265 29.5532 248.925 27.7199 250.245 26.1599C251.578 24.5866 253.585 23.2399 256.265 22.1199C255.385 21.0666 254.678 20.1266 254.145 19.2999C253.625 18.4599 253.252 17.6599 253.025 16.8999C252.798 16.1399 252.685 15.3599 252.685 14.5599C252.685 12.8266 253.118 11.3532 253.985 10.1399C254.852 8.91324 256.018 7.97991 257.485 7.33991C258.952 6.68657 260.578 6.35991 262.365 6.35991C263.965 6.35991 265.358 6.59991 266.545 7.07991C267.745 7.54657 268.745 8.17991 269.545 8.97991C270.345 9.76657 270.945 10.6466 271.345 11.6199C271.745 12.5799 271.945 13.5466 271.945 14.5199C271.945 16.1999 271.378 17.7266 270.245 19.0999C269.112 20.4732 267.472 21.7266 265.325 22.8599L270.845 28.6799C271.192 28.4132 271.572 28.0866 271.985 27.6999C272.412 27.2999 272.838 26.8866 273.265 26.4599C273.692 26.0332 274.092 25.6199 274.465 25.2199C274.852 24.8199 275.172 24.4799 275.425 24.1999L279.425 28.0399C278.665 28.9066 277.878 29.7732 277.065 30.6399C276.252 31.5066 275.532 32.2266 274.905 32.7999L281.725 39.9999H273.585L270.065 36.2999C268.505 37.6732 266.798 38.7399 264.945 39.4999C263.105 40.2599 261.138 40.6399 259.045 40.6399ZM259.925 34.4799C260.938 34.4799 261.952 34.2599 262.965 33.8199C263.978 33.3799 264.938 32.7466 265.845 31.9199L259.605 25.5999C258.352 26.0799 257.365 26.7799 256.645 27.6999C255.925 28.6066 255.565 29.6066 255.565 30.6999C255.565 31.4999 255.752 32.1866 256.125 32.7599C256.512 33.3199 257.038 33.7466 257.705 34.0399C258.372 34.3332 259.112 34.4799 259.925 34.4799ZM262.045 19.2999C262.978 18.7932 263.758 18.2932 264.385 17.7999C265.012 17.3066 265.478 16.7932 265.785 16.2599C266.105 15.7132 266.265 15.1132 266.265 14.4599C266.265 13.7799 266.105 13.1799 265.785 12.6599C265.478 12.1266 265.052 11.7132 264.505 11.4199C263.972 11.1132 263.358 10.9599 262.665 10.9599C261.998 10.9599 261.405 11.1066 260.885 11.3999C260.365 11.6932 259.958 12.0999 259.665 12.6199C259.385 13.1266 259.245 13.7132 259.245 14.3799C259.245 14.9132 259.345 15.4399 259.545 15.9599C259.745 16.4666 260.045 16.9932 260.445 17.5399C260.858 18.0732 261.392 18.6599 262.045 19.2999ZM298.047 39.9999V6.99991H309.287C311.434 6.99991 313.34 7.37324 315.007 8.11991C316.674 8.86657 317.987 9.97991 318.947 11.4599C319.907 12.9266 320.387 14.7599 320.387 16.9599C320.387 19.1466 319.907 21.0132 318.947 22.5599C317.987 24.1066 316.674 25.2932 315.007 26.1199C313.34 26.9332 311.434 27.3399 309.287 27.3399H304.527V39.9999H298.047ZM304.527 22.1599H307.287C308.42 22.1599 309.46 21.9932 310.407 21.6599C311.367 21.3266 312.14 20.7932 312.727 20.0599C313.314 19.3266 313.607 18.3599 313.607 17.1599C313.607 15.9466 313.314 14.9799 312.727 14.2599C312.14 13.5266 311.367 12.9999 310.407 12.6799C309.46 12.3466 308.42 12.1799 307.287 12.1799H304.527V22.1599ZM326.367 39.9999V6.99991H332.847V20.6199H345.187V6.99991H351.647V39.9999H345.187V26.2999H332.847V39.9999H326.367ZM364.49 39.9999V25.2999L352.51 6.99991H360.31L367.73 18.6999L375.15 6.99991H382.95L370.97 25.2999V39.9999H364.49ZM394.069 40.6399C392.535 40.6399 391.122 40.4666 389.829 40.1199C388.535 39.7866 387.375 39.3666 386.349 38.8599C385.335 38.3399 384.462 37.8066 383.729 37.2599C382.995 36.7132 382.415 36.2332 381.989 35.8199L385.309 30.4599C385.749 30.8466 386.275 31.2799 386.889 31.7599C387.502 32.2399 388.189 32.6999 388.949 33.1399C389.709 33.5666 390.529 33.9266 391.409 34.2199C392.302 34.4999 393.249 34.6399 394.249 34.6399C395.182 34.6399 396.002 34.4932 396.709 34.1999C397.429 33.9066 397.995 33.4732 398.409 32.8999C398.822 32.3132 399.029 31.5866 399.029 30.7199C399.029 29.9332 398.862 29.2666 398.529 28.7199C398.195 28.1599 397.702 27.6599 397.049 27.2199C396.409 26.7666 395.615 26.3266 394.669 25.8999C393.735 25.4599 392.669 24.9799 391.469 24.4599C390.575 24.0599 389.722 23.6066 388.909 23.0999C388.109 22.5799 387.395 21.9799 386.769 21.2999C386.142 20.6199 385.642 19.8532 385.269 18.9999C384.909 18.1332 384.729 17.1666 384.729 16.0999C384.729 14.8332 384.982 13.6199 385.489 12.4599C385.995 11.2999 386.715 10.2666 387.649 9.35991C388.595 8.45324 389.715 7.73324 391.009 7.19991C392.315 6.66657 393.769 6.39991 395.369 6.39991C396.569 6.39991 397.769 6.55991 398.969 6.87991C400.169 7.19991 401.289 7.61991 402.329 8.13991C403.369 8.65991 404.249 9.22657 404.969 9.83991L402.269 14.9199C401.695 14.4266 401.042 13.9866 400.309 13.5999C399.589 13.1999 398.815 12.8799 397.989 12.6399C397.175 12.3999 396.349 12.2799 395.509 12.2799C394.562 12.2799 393.755 12.4466 393.089 12.7799C392.435 13.1132 391.929 13.5599 391.569 14.1199C391.222 14.6666 391.049 15.2799 391.049 15.9599C391.049 16.5199 391.162 16.9999 391.389 17.3999C391.629 17.7866 391.962 18.1266 392.389 18.4199C392.815 18.6999 393.329 18.9732 393.929 19.2399C394.529 19.4932 395.189 19.7666 395.909 20.0599C397.455 20.7132 398.855 21.3599 400.109 21.9999C401.362 22.6399 402.435 23.3532 403.329 24.1399C404.222 24.9132 404.902 25.8199 405.369 26.8599C405.849 27.8999 406.089 29.1399 406.089 30.5799C406.089 32.6866 405.582 34.4932 404.569 35.9999C403.569 37.5066 402.169 38.6599 400.369 39.4599C398.569 40.2466 396.469 40.6399 394.069 40.6399ZM412.734 39.9999V6.99991H419.214V39.9999H412.734ZM443.102 40.6399C440.609 40.6399 438.269 40.1999 436.082 39.3199C433.896 38.4399 431.969 37.2199 430.302 35.6599C428.636 34.0866 427.336 32.2666 426.402 30.1999C425.469 28.1332 425.002 25.9132 425.002 23.5399C425.002 21.1532 425.469 18.9266 426.402 16.8599C427.349 14.7799 428.649 12.9599 430.302 11.3999C431.969 9.82657 433.889 8.59991 436.062 7.71991C438.249 6.83991 440.582 6.39991 443.062 6.39991C445.089 6.39991 447.016 6.68657 448.842 7.25991C450.682 7.83324 452.256 8.58657 453.562 9.51991L450.762 15.0199C449.869 14.3132 448.782 13.7599 447.502 13.3599C446.222 12.9599 444.882 12.7599 443.482 12.7599C441.842 12.7599 440.322 13.0332 438.922 13.5799C437.536 14.1266 436.322 14.8866 435.282 15.8599C434.256 16.8332 433.456 17.9732 432.882 19.2799C432.309 20.5866 432.022 21.9999 432.022 23.5199C432.022 25.0399 432.309 26.4532 432.882 27.7599C433.456 29.0666 434.256 30.2066 435.282 31.1799C436.322 32.1532 437.536 32.9132 438.922 33.4599C440.322 34.0066 441.842 34.2799 443.482 34.2799C444.882 34.2799 446.222 34.0799 447.502 33.6799C448.782 33.2799 449.869 32.7266 450.762 32.0199L453.562 37.5199C452.309 38.4266 450.769 39.1732 448.942 39.7599C447.116 40.3466 445.169 40.6399 443.102 40.6399ZM454.708 39.9999L467.968 6.99991H473.988L487.228 39.9999H480.248L477.448 32.4799H464.488L461.688 39.9999H454.708ZM466.708 26.7999H475.248L470.968 15.7399L466.708 26.7999ZM492.109 39.9999V6.99991H498.589V34.3199H510.509V39.9999H492.109ZM526.563 39.9999V6.99991H533.043V20.6199H545.383V6.99991H551.843V39.9999H545.383V26.2999H533.043V39.9999H526.563ZM560.859 39.9999V6.99991H579.219V12.6799H567.339V20.6199H578.739V26.2999H567.339V34.3199H579.219V39.9999H560.859ZM583.263 39.9999L596.523 6.99991H602.543L615.783 39.9999H608.803L606.003 32.4799H593.043L590.243 39.9999H583.263ZM595.263 26.7999H603.803L599.523 15.7399L595.263 26.7999ZM620.664 39.9999V6.99991H627.144V34.3199H639.064V39.9999H620.664ZM646.906 39.9999V12.7199H638.546V6.99991H661.746V12.7199H653.366V39.9999H646.906ZM666.992 39.9999V6.99991H673.472V20.6199H685.812V6.99991H692.272V39.9999H685.812V26.2999H673.472V39.9999H666.992Z" fill="white"/>
</g>
<path d="M2.12805 1.97141C2.80336 1.31887 3.6613 0.994183 4.70189 0.997339C5.74247 1.0005 6.59843 1.33038 7.26977 1.98701L21.5512 15.8659L35.9165 2.0739C36.5918 1.42136 37.4339 1.08115 38.4427 1.05326C39.4516 1.02538 40.3234 1.37079 41.0582 2.08949C41.7295 2.74612 42.0637 3.58024 42.0606 4.59187C42.0575 5.6035 41.7183 6.43558 41.043 7.08812L24.099 23.4609C23.7306 23.8169 23.332 24.0692 22.9031 24.2178C22.4741 24.3665 22.0148 24.4389 21.5252 24.435C21.0355 24.4335 20.5766 24.3583 20.1486 24.2095C19.7206 24.0606 19.3235 23.8059 18.9573 23.4453L2.11289 6.97004C1.44156 6.31342 1.09146 5.49471 1.06261 4.51394C1.03375 3.53316 1.3889 2.68565 2.12805 1.97141ZM2.05658 25.5364C2.73188 24.8838 3.58982 24.5591 4.63041 24.5623C5.67099 24.5655 6.52696 24.8953 7.19829 25.552L21.4797 39.4309L35.845 25.6389C36.5203 24.9863 37.3624 24.6461 38.3712 24.6182C39.3801 24.5903 40.2519 24.9357 40.9867 25.6545C41.658 26.3111 41.9922 27.1452 41.9891 28.1568C41.986 29.1685 41.6469 30.0005 40.9715 30.6531L24.0275 47.0259C23.6592 47.3818 23.2605 47.6341 22.8316 47.7828C22.4027 47.9314 21.9434 48.0038 21.4537 48C20.964 47.9985 20.5051 47.9221 20.0771 47.7709C19.6491 47.6196 19.252 47.3661 18.8858 47.0103L2.04142 30.535C1.37008 29.8784 1.01999 29.0597 0.991131 28.0789C0.962276 27.0981 1.31742 26.2506 2.05658 25.5364Z" fill="white" fill-opacity="0.53"/>
<defs>
<filter id="filter0_d_37_35" x="51.98" y="6.35989" width="644.292" height="42.28" filterUnits="userSpaceOnUse" color-interpolation-filters="sRGB">
<feFlood flood-opacity="0" result="BackgroundImageFix"/>
<feColorMatrix in="SourceAlpha" type="matrix" values="0 0 0 0 0 0 0 0 0 0 0 0 0 0 0 0 0 0 127 0" result="hardAlpha"/>
<feOffset dy="4"/>
<feGaussianBlur stdDeviation="2"/>
<feComposite in2="hardAlpha" operator="out"/>
<feColorMatrix type="matrix" values="0 0 0 0 0 0 0 0 0 0 0 0 0 0 0 0 0 0 0.25 0"/>
<feBlend mode="normal" in2="BackgroundImageFix" result="effect1_dropShadow_37_35"/>
<feBlend mode="normal" in="SourceGraphic" in2="effect1_dropShadow_37_35" result="shape"/>
</filter>
</defs>
</svg>
