<svg width="499" height="49" viewBox="0 0 499 49" fill="none" xmlns="http://www.w3.org/2000/svg">
<g filter="url(#filter0_d_37_36)">
<path d="M62.4998 39.0002V6.00015H68.9798V33.3202H80.8998V39.0002H62.4998ZM86.1716 39.0002V6.00015H92.6516V39.0002H86.1716ZM101.679 39.0002V6.00015H120.219V11.6802H106.599L108.159 10.2602V21.4202L106.599 19.6202H119.319V25.3002H106.599L108.159 23.5002V39.0002H101.679ZM126.758 39.0002V6.00015H145.118V11.6802H133.238V19.6202H144.638V25.3002H133.238V33.3202H145.118V39.0002H126.758ZM161.647 39.6402C160.113 39.6402 158.7 39.4668 157.407 39.1202C156.113 38.7868 154.953 38.3668 153.927 37.8602C152.913 37.3402 152.04 36.8068 151.307 36.2602C150.573 35.7135 149.993 35.2335 149.567 34.8202L152.887 29.4602C153.327 29.8468 153.853 30.2802 154.467 30.7602C155.08 31.2402 155.767 31.7002 156.527 32.1402C157.287 32.5668 158.107 32.9268 158.987 33.2202C159.88 33.5002 160.827 33.6402 161.827 33.6402C162.76 33.6402 163.58 33.4935 164.287 33.2002C165.007 32.9068 165.573 32.4735 165.987 31.9002C166.4 31.3135 166.607 30.5868 166.607 29.7202C166.607 28.9335 166.44 28.2668 166.107 27.7202C165.773 27.1602 165.28 26.6602 164.627 26.2202C163.987 25.7668 163.193 25.3268 162.247 24.9002C161.313 24.4602 160.247 23.9802 159.047 23.4602C158.153 23.0602 157.3 22.6068 156.487 22.1002C155.687 21.5802 154.973 20.9802 154.347 20.3002C153.72 19.6202 153.22 18.8535 152.847 18.0002C152.487 17.1335 152.307 16.1668 152.307 15.1002C152.307 13.8335 152.56 12.6202 153.067 11.4602C153.573 10.3002 154.293 9.26682 155.227 8.36015C156.173 7.45349 157.293 6.73348 158.587 6.20015C159.893 5.66682 161.347 5.40015 162.947 5.40015C164.147 5.40015 165.347 5.56015 166.547 5.88015C167.747 6.20015 168.867 6.62015 169.907 7.14015C170.947 7.66015 171.827 8.22682 172.547 8.84015L169.847 13.9202C169.273 13.4268 168.62 12.9868 167.887 12.6002C167.167 12.2002 166.393 11.8802 165.567 11.6402C164.753 11.4002 163.927 11.2802 163.087 11.2802C162.14 11.2802 161.333 11.4468 160.667 11.7802C160.013 12.1135 159.507 12.5602 159.147 13.1202C158.8 13.6668 158.627 14.2802 158.627 14.9602C158.627 15.5202 158.74 16.0002 158.967 16.4002C159.207 16.7868 159.54 17.1268 159.967 17.4202C160.393 17.7002 160.907 17.9735 161.507 18.2402C162.107 18.4935 162.767 18.7668 163.487 19.0602C165.033 19.7135 166.433 20.3602 167.687 21.0002C168.94 21.6402 170.013 22.3535 170.907 23.1402C171.8 23.9135 172.48 24.8202 172.947 25.8602C173.427 26.9002 173.667 28.1402 173.667 29.5802C173.667 31.6868 173.16 33.4935 172.147 35.0002C171.147 36.5068 169.747 37.6602 167.947 38.4602C166.147 39.2468 164.047 39.6402 161.647 39.6402ZM183.038 39.0002V11.7202H174.678V6.00015H197.878V11.7202H189.498V39.0002H183.038ZM210.545 39.0002V24.3002L198.565 6.00015H206.365L213.785 17.7002L221.205 6.00015H229.005L217.025 24.3002V39.0002H210.545ZM233.437 39.0002V6.00015H239.917V33.3202H251.837V39.0002H233.437ZM257.109 39.0002V6.00015H275.469V11.6802H263.589V19.6202H274.989V25.3002H263.589V33.3202H275.469V39.0002H257.109ZM302.599 39.6402C300.466 39.6402 298.586 39.2668 296.959 38.5202C295.346 37.7735 294.086 36.7268 293.179 35.3802C292.273 34.0335 291.819 32.4602 291.819 30.6602C291.819 28.5535 292.479 26.7202 293.799 25.1602C295.133 23.5868 297.139 22.2402 299.819 21.1202C298.939 20.0668 298.233 19.1268 297.699 18.3002C297.179 17.4602 296.806 16.6602 296.579 15.9002C296.353 15.1402 296.239 14.3602 296.239 13.5602C296.239 11.8268 296.673 10.3535 297.539 9.14015C298.406 7.91349 299.573 6.98015 301.039 6.34015C302.506 5.68682 304.133 5.36015 305.919 5.36015C307.519 5.36015 308.913 5.60015 310.099 6.08015C311.299 6.54682 312.299 7.18015 313.099 7.98015C313.899 8.76682 314.499 9.64682 314.899 10.6202C315.299 11.5802 315.499 12.5468 315.499 13.5202C315.499 15.2002 314.933 16.7268 313.799 18.1002C312.666 19.4735 311.026 20.7268 308.879 21.8602L314.399 27.6802C314.746 27.4135 315.126 27.0868 315.539 26.7002C315.966 26.3002 316.393 25.8868 316.819 25.4602C317.246 25.0335 317.646 24.6202 318.019 24.2202C318.406 23.8202 318.726 23.4802 318.979 23.2002L322.979 27.0402C322.219 27.9068 321.433 28.7735 320.619 29.6402C319.806 30.5068 319.086 31.2268 318.459 31.8002L325.279 39.0002H317.139L313.619 35.3002C312.059 36.6735 310.353 37.7402 308.499 38.5002C306.659 39.2602 304.693 39.6402 302.599 39.6402ZM303.479 33.4802C304.493 33.4802 305.506 33.2602 306.519 32.8202C307.533 32.3802 308.493 31.7468 309.399 30.9202L303.159 24.6002C301.906 25.0802 300.919 25.7802 300.199 26.7002C299.479 27.6068 299.119 28.6068 299.119 29.7002C299.119 30.5002 299.306 31.1868 299.679 31.7602C300.066 32.3202 300.593 32.7468 301.259 33.0402C301.926 33.3335 302.666 33.4802 303.479 33.4802ZM305.599 18.3002C306.533 17.7935 307.313 17.2935 307.939 16.8002C308.566 16.3068 309.033 15.7935 309.339 15.2602C309.659 14.7135 309.819 14.1135 309.819 13.4602C309.819 12.7802 309.659 12.1802 309.339 11.6602C309.033 11.1268 308.606 10.7135 308.059 10.4202C307.526 10.1135 306.913 9.96015 306.219 9.96015C305.553 9.96015 304.959 10.1068 304.439 10.4002C303.919 10.6935 303.513 11.1002 303.219 11.6202C302.939 12.1268 302.799 12.7135 302.799 13.3802C302.799 13.9135 302.899 14.4402 303.099 14.9602C303.299 15.4668 303.599 15.9935 303.999 16.5402C304.413 17.0735 304.946 17.6602 305.599 18.3002ZM341.601 39.0002V6.00015H348.081V19.6202H360.421V6.00015H366.881V39.0002H360.421V25.3002H348.081V39.0002H341.601ZM371.778 39.0002L385.038 6.00015H391.058L404.298 39.0002H397.318L394.518 31.4802H381.558L378.758 39.0002H371.778ZM383.778 25.8002H392.318L388.038 14.7402L383.778 25.8002ZM407.459 39.0002V6.00015H416.919C420.093 6.00015 422.579 6.69348 424.379 8.08015C426.179 9.46682 427.079 11.5402 427.079 14.3002C427.079 17.7268 425.666 20.1468 422.839 21.5602C425.146 21.9202 426.913 22.8068 428.139 24.2202C429.379 25.6202 429.999 27.4602 429.999 29.7402C429.999 31.6602 429.566 33.3135 428.699 34.7002C427.833 36.0868 426.599 37.1535 424.999 37.9002C423.399 38.6335 421.506 39.0002 419.319 39.0002H407.459ZM413.919 19.3602H415.419C417.166 19.3602 418.506 19.0002 419.439 18.2802C420.373 17.5468 420.839 16.5002 420.839 15.1402C420.839 13.7668 420.386 12.7402 419.479 12.0602C418.573 11.3668 417.219 11.0202 415.419 11.0202H413.919V19.3602ZM413.919 33.9602H417.119C419.146 33.9602 420.666 33.5868 421.679 32.8402C422.706 32.0935 423.219 30.9935 423.219 29.5402C423.219 28.0602 422.693 26.9268 421.639 26.1402C420.599 25.3402 419.093 24.9402 417.119 24.9402H413.919V33.9602ZM435.664 39.0002V6.00015H442.144V39.0002H435.664ZM453.898 39.0002V11.7202H445.538V6.00015H468.738V11.7202H460.358V39.0002H453.898ZM482.584 39.6402C481.051 39.6402 479.637 39.4668 478.344 39.1202C477.051 38.7868 475.891 38.3668 474.864 37.8602C473.851 37.3402 472.977 36.8068 472.244 36.2602C471.511 35.7135 470.931 35.2335 470.504 34.8202L473.824 29.4602C474.264 29.8468 474.791 30.2802 475.404 30.7602C476.017 31.2402 476.704 31.7002 477.464 32.1402C478.224 32.5668 479.044 32.9268 479.924 33.2202C480.817 33.5002 481.764 33.6402 482.764 33.6402C483.697 33.6402 484.517 33.4935 485.224 33.2002C485.944 32.9068 486.511 32.4735 486.924 31.9002C487.337 31.3135 487.544 30.5868 487.544 29.7202C487.544 28.9335 487.377 28.2668 487.044 27.7202C486.711 27.1602 486.217 26.6602 485.564 26.2202C484.924 25.7668 484.131 25.3268 483.184 24.9002C482.251 24.4602 481.184 23.9802 479.984 23.4602C479.091 23.0602 478.237 22.6068 477.424 22.1002C476.624 21.5802 475.911 20.9802 475.284 20.3002C474.657 19.6202 474.157 18.8535 473.784 18.0002C473.424 17.1335 473.244 16.1668 473.244 15.1002C473.244 13.8335 473.497 12.6202 474.004 11.4602C474.511 10.3002 475.231 9.26682 476.164 8.36015C477.111 7.45349 478.231 6.73348 479.524 6.20015C480.831 5.66682 482.284 5.40015 483.884 5.40015C485.084 5.40015 486.284 5.56015 487.484 5.88015C488.684 6.20015 489.804 6.62015 490.844 7.14015C491.884 7.66015 492.764 8.22682 493.484 8.84015L490.784 13.9202C490.211 13.4268 489.557 12.9868 488.824 12.6002C488.104 12.2002 487.331 11.8802 486.504 11.6402C485.691 11.4002 484.864 11.2802 484.024 11.2802C483.077 11.2802 482.271 11.4468 481.604 11.7802C480.951 12.1135 480.444 12.5602 480.084 13.1202C479.737 13.6668 479.564 14.2802 479.564 14.9602C479.564 15.5202 479.677 16.0002 479.904 16.4002C480.144 16.7868 480.477 17.1268 480.904 17.4202C481.331 17.7002 481.844 17.9735 482.444 18.2402C483.044 18.4935 483.704 18.7668 484.424 19.0602C485.971 19.7135 487.371 20.3602 488.624 21.0002C489.877 21.6402 490.951 22.3535 491.844 23.1402C492.737 23.9135 493.417 24.8202 493.884 25.8602C494.364 26.9002 494.604 28.1402 494.604 29.5802C494.604 31.6868 494.097 33.4935 493.084 35.0002C492.084 36.5068 490.684 37.6602 488.884 38.4602C487.084 39.2468 484.984 39.6402 482.584 39.6402Z" fill="white"/>
</g>
<path d="M1.9227 2.14939C2.59201 1.4907 3.44695 1.15818 4.48752 1.15182C5.52809 1.14546 6.38703 1.46751 7.06435 2.11797L21.472 15.8657L35.7106 1.94291C36.38 1.28422 37.2189 0.936325 38.2274 0.899218C39.236 0.86211 40.1109 1.19953 40.8523 1.91149C41.5296 2.56195 41.8713 3.39298 41.8775 4.4046C41.8837 5.41621 41.5521 6.25136 40.8828 6.91005L24.0892 23.4371C23.7241 23.7964 23.3278 24.0523 22.9003 24.2049C22.4727 24.3575 22.0141 24.4341 21.5244 24.4347C21.0347 24.4377 20.5752 24.3667 20.1458 24.2217C19.7165 24.0768 19.317 23.8257 18.9476 23.4685L1.95325 7.14794C1.27594 6.49749 0.918372 5.68202 0.88055 4.70155C0.842728 3.72107 1.19011 2.87035 1.9227 2.14939ZM2.06671 25.714C2.73602 25.0553 3.59095 24.7228 4.63152 24.7164C5.67209 24.7101 6.53104 25.0321 7.20835 25.6826L21.616 39.4304L35.8546 25.5075C36.524 24.8488 37.3629 24.501 38.3714 24.4638C39.38 24.4267 40.2549 24.7642 40.9963 25.4761C41.6736 26.1266 42.0153 26.9576 42.0215 27.9692C42.0277 28.9808 41.6961 29.816 41.0268 30.4747L24.2332 47.0017C23.8682 47.361 23.4718 47.617 23.0443 47.7695C22.6167 47.9221 22.1581 47.9987 21.6684 47.9993C21.1787 48.0023 20.7192 47.9301 20.2898 47.7828C19.8604 47.6355 19.461 47.3856 19.0916 47.0332L2.09725 30.7126C1.41994 30.0621 1.06238 29.2466 1.02455 28.2662C0.986731 27.2857 1.33412 26.435 2.06671 25.714Z" fill="white" fill-opacity="0.53"/>
<defs>
<filter id="filter0_d_37_36" x="58.4998" y="5.36014" width="440.104" height="42.28" filterUnits="userSpaceOnUse" color-interpolation-filters="sRGB">
<feFlood flood-opacity="0" result="BackgroundImageFix"/>
<feColorMatrix in="SourceAlpha" type="matrix" values="0 0 0 0 0 0 0 0 0 0 0 0 0 0 0 0 0 0 127 0" result="hardAlpha"/>
<feOffset dy="4"/>
<feGaussianBlur stdDeviation="2"/>
<feComposite in2="hardAlpha" operator="out"/>
<feColorMatrix type="matrix" values="0 0 0 0 0 0 0 0 0 0 0 0 0 0 0 0 0 0 0.25 0"/>
<feBlend mode="normal" in2="BackgroundImageFix" result="effect1_dropShadow_37_36"/>
<feBlend mode="normal" in="SourceGraphic" in2="effect1_dropShadow_37_36" result="shape"/>
</filter>
</defs>
</svg>
