<svg width="360" height="270" viewBox="0 0 360 270" fill="none" xmlns="http://www.w3.org/2000/svg">
<path d="M21.936 83V17.528H1.872V3.8H57.552V17.528H37.44V83H21.936ZM101.226 84.536C95.69 84.536 90.506 83.48 85.674 81.368C80.842 79.256 76.602 76.328 72.954 72.584C69.306 68.808 66.442 64.44 64.362 59.48C62.314 54.488 61.29 49.144 61.29 43.448C61.29 37.752 62.314 32.424 64.362 27.464C66.442 22.472 69.306 18.104 72.954 14.36C76.602 10.584 80.842 7.64 85.674 5.528C90.506 3.416 95.69 2.36 101.226 2.36C106.762 2.36 111.946 3.416 116.778 5.528C121.61 7.64 125.85 10.584 129.498 14.36C133.146 18.104 135.994 22.472 138.042 27.464C140.122 32.424 141.162 37.752 141.162 43.448C141.162 49.144 140.122 54.488 138.042 59.48C135.994 64.44 133.146 68.808 129.498 72.584C125.85 76.328 121.61 79.256 116.778 81.368C111.946 83.48 106.762 84.536 101.226 84.536ZM101.178 69.56C104.57 69.56 107.674 68.92 110.49 67.64C113.306 66.36 115.754 64.552 117.834 62.216C119.914 59.88 121.53 57.128 122.682 53.96C123.834 50.76 124.41 47.256 124.41 43.448C124.41 39.64 123.834 36.152 122.682 32.984C121.53 29.784 119.914 27.016 117.834 24.68C115.754 22.344 113.306 20.536 110.49 19.256C107.674 17.976 104.57 17.336 101.178 17.336C97.85 17.336 94.762 17.976 91.914 19.256C89.098 20.536 86.65 22.344 84.57 24.68C82.49 27.016 80.874 29.784 79.722 32.984C78.602 36.152 78.042 39.64 78.042 43.448C78.042 47.256 78.602 50.76 79.722 53.96C80.874 57.128 82.49 59.88 84.57 62.216C86.65 64.552 89.098 66.36 91.914 67.64C94.762 68.92 97.85 69.56 101.178 69.56ZM156.956 83V3.8H183.932C189.084 3.8 193.66 4.696 197.66 6.488C201.66 8.27999 204.812 10.952 207.116 14.504C209.42 18.024 210.572 22.424 210.572 27.704C210.572 32.952 209.42 37.432 207.116 41.144C204.812 44.856 201.66 47.704 197.66 49.688C193.66 51.64 189.084 52.616 183.932 52.616H172.508V83H156.956ZM172.508 40.184H179.132C181.852 40.184 184.348 39.784 186.62 38.984C188.924 38.184 190.78 36.904 192.188 35.144C193.596 33.384 194.3 31.064 194.3 28.184C194.3 25.272 193.596 22.952 192.188 21.224C190.78 19.464 188.924 18.2 186.62 17.432C184.348 16.632 181.852 16.232 179.132 16.232H172.508V40.184ZM224.925 83V3.8H240.477V83H224.925ZM297.808 84.536C291.824 84.536 286.208 83.48 280.96 81.368C275.712 79.256 271.088 76.328 267.088 72.584C263.088 68.808 259.968 64.44 257.728 59.48C255.488 54.52 254.368 49.192 254.368 43.496C254.368 37.768 255.488 32.424 257.728 27.464C260 22.472 263.12 18.104 267.088 14.36C271.088 10.584 275.696 7.64 280.912 5.528C286.16 3.416 291.76 2.36 297.712 2.36C302.576 2.36 307.2 3.048 311.584 4.424C316 5.8 319.776 7.608 322.912 9.848L316.192 23.048C314.048 21.352 311.44 20.024 308.368 19.064C305.296 18.104 302.08 17.624 298.72 17.624C294.784 17.624 291.136 18.28 287.776 19.592C284.448 20.904 281.536 22.728 279.04 25.064C276.576 27.4 274.656 30.136 273.28 33.272C271.904 36.408 271.216 39.8 271.216 43.448C271.216 47.096 271.904 50.488 273.28 53.624C274.656 56.76 276.576 59.496 279.04 61.832C281.536 64.168 284.448 65.992 287.776 67.304C291.136 68.616 294.784 69.272 298.72 69.272C302.08 69.272 305.296 68.792 308.368 67.832C311.44 66.872 314.048 65.544 316.192 63.848L322.912 77.048C319.904 79.224 316.208 81.016 311.824 82.424C307.44 83.832 302.768 84.536 297.808 84.536Z" fill="white"/>
<path d="M37.48 174.28C32.8667 174.28 28.5467 173.4 24.52 171.64C20.4933 169.88 16.96 167.44 13.92 164.32C10.88 161.173 8.49333 157.533 6.76 153.4C5.05333 149.24 4.2 144.787 4.2 140.04C4.2 135.293 5.05333 130.853 6.76 126.72C8.49333 122.56 10.88 118.92 13.92 115.8C16.96 112.653 20.4933 110.2 24.52 108.44C28.5467 106.68 32.8667 105.8 37.48 105.8C42.0933 105.8 46.4133 106.68 50.44 108.44C54.4667 110.2 58 112.653 61.04 115.8C64.08 118.92 66.4533 122.56 68.16 126.72C69.8933 130.853 70.76 135.293 70.76 140.04C70.76 144.787 69.8933 149.24 68.16 153.4C66.4533 157.533 64.08 161.173 61.04 164.32C58 167.44 54.4667 169.88 50.44 171.64C46.4133 173.4 42.0933 174.28 37.48 174.28ZM37.44 161.8C40.2667 161.8 42.8533 161.267 45.2 160.2C47.5467 159.133 49.5867 157.627 51.32 155.68C53.0533 153.733 54.4 151.44 55.36 148.8C56.32 146.133 56.8 143.213 56.8 140.04C56.8 136.867 56.32 133.96 55.36 131.32C54.4 128.653 53.0533 126.347 51.32 124.4C49.5867 122.453 47.5467 120.947 45.2 119.88C42.8533 118.813 40.2667 118.28 37.44 118.28C34.6667 118.28 32.0933 118.813 29.72 119.88C27.3733 120.947 25.3333 122.453 23.6 124.4C21.8667 126.347 20.52 128.653 19.56 131.32C18.6267 133.96 18.16 136.867 18.16 140.04C18.16 143.213 18.6267 146.133 19.56 148.8C20.52 151.44 21.8667 153.733 23.6 155.68C25.3333 157.627 27.3733 159.133 29.72 160.2C32.0933 161.267 34.6667 161.8 37.44 161.8ZM83.9219 173V107H121.002V118.36H93.7619L96.8819 115.52V137.84L93.7619 134.24H119.202V145.6H93.7619L96.8819 142V173H83.9219ZM161.093 173V118.44H144.373V107H190.773V118.44H174.013V173H161.093ZM201.266 173V107H214.226V134.24H238.906V107H251.826V173H238.906V145.6H214.226V173H201.266ZM269.859 173V107H306.579V118.36H282.819V134.24H305.619V145.6H282.819V161.64H306.579V173H269.859Z" fill="white" fill-opacity="0.53"/>
<path d="M5.5875 251L11.7375 189.125H24.6375L39.4125 227.825L54.1875 189.125H67.0875L73.2375 251H61.0875L57.2625 210.95L43.125 249.462H35.6625L21.5625 210.95L17.7 251H5.5875ZM113.946 252.2C109.621 252.2 105.571 251.375 101.796 249.725C98.0211 248.075 94.7086 245.787 91.8586 242.862C89.0086 239.912 86.7711 236.5 85.1461 232.625C83.5461 228.725 82.7461 224.55 82.7461 220.1C82.7461 215.65 83.5461 211.487 85.1461 207.612C86.7711 203.712 89.0086 200.3 91.8586 197.375C94.7086 194.425 98.0211 192.125 101.796 190.475C105.571 188.825 109.621 188 113.946 188C118.271 188 122.321 188.825 126.096 190.475C129.871 192.125 133.184 194.425 136.034 197.375C138.884 200.3 141.109 203.712 142.709 207.612C144.334 211.487 145.146 215.65 145.146 220.1C145.146 224.55 144.334 228.725 142.709 232.625C141.109 236.5 138.884 239.912 136.034 242.862C133.184 245.787 129.871 248.075 126.096 249.725C122.321 251.375 118.271 252.2 113.946 252.2ZM113.909 240.5C116.559 240.5 118.984 240 121.184 239C123.384 238 125.296 236.587 126.921 234.762C128.546 232.937 129.809 230.787 130.709 228.312C131.609 225.812 132.059 223.075 132.059 220.1C132.059 217.125 131.609 214.4 130.709 211.925C129.809 209.425 128.546 207.262 126.921 205.437C125.296 203.612 123.384 202.2 121.184 201.2C118.984 200.2 116.559 199.7 113.909 199.7C111.309 199.7 108.896 200.2 106.671 201.2C104.471 202.2 102.559 203.612 100.934 205.437C99.3086 207.262 98.0461 209.425 97.1461 211.925C96.2711 214.4 95.8336 217.125 95.8336 220.1C95.8336 223.075 96.2711 225.812 97.1461 228.312C98.0461 230.787 99.3086 232.937 100.934 234.762C102.559 236.587 104.471 238 106.671 239C108.896 240 111.309 240.5 113.909 240.5ZM157.485 251V189.125H169.635L196.298 230.75V189.125H208.448V251H196.298L169.635 209.375V251H157.485ZM230.419 251V199.85H214.744V189.125H258.244V199.85H242.531V251H230.419ZM268.081 251V189.125H280.231V214.662H303.369V189.125H315.481V251H303.369V225.312H280.231V251H268.081Z" fill="white"/>
<line x1="98" y1="267.5" x2="162" y2="267.5" stroke="white" stroke-width="5"/>
</svg>
